<svg version="1.1" xmlns="http://www.w3.org/2000/svg" xmlns:xlink="http://www.w3.org/1999/xlink" stroke-linecap="round" stroke-linejoin="round" stroke-width="0" fill-rule="evenodd" clip-rule="evenodd" id="Z3Avcl27c-ouz1Ey9TBM_top" viewBox="3137.5 -112595 266700 76200" width="266.7mm" height="76.2mm" class="w-100 h-100"><defs><style>.Z3Avcl27c-ouz1Ey9TBM_fr4 {color: #666666;}
.Z3Avcl27c-ouz1Ey9TBM_cu {color: #cccccc;}
.Z3Avcl27c-ouz1Ey9TBM_cf {color: #cc9933;}
.Z3Avcl27c-ouz1Ey9TBM_sm {color: #4b0082; opacity: 0.75;}
.Z3Avcl27c-ouz1Ey9TBM_ss {color: #ffffff;}
.Z3Avcl27c-ouz1Ey9TBM_sp {color: #999999;}
.Z3Avcl27c-ouz1Ey9TBM_out {color: #000000;}</style><rect x="-1100" y="-750" width="2200" height="1500" rx="750" ry="750" id="E_KSsWvWKfVJpA-zD5pi_pad-10"/><circle cx="0" cy="0" r="2400" id="E_KSsWvWKfVJpA-zD5pi_pad-11"/><circle cx="0" cy="0" r="1150" id="E_KSsWvWKfVJpA-zD5pi_pad-12"/><circle cx="0" cy="0" r="762" id="E_KSsWvWKfVJpA-zD5pi_pad-13"/><circle cx="0" cy="0" r="1000" id="E_KSsWvWKfVJpA-zD5pi_pad-14"/><circle cx="0" cy="0" r="300" id="E_KSsWvWKfVJpA-zD5pi_pad-15"/><circle cx="0" cy="0" r="1700" id="P1kOfRhPEJ1fO7TJEy2L_pad-10"/><circle cx="0" cy="0" r="2600" id="P1kOfRhPEJ1fO7TJEy2L_pad-11"/><circle cx="0" cy="0" r="1350" id="P1kOfRhPEJ1fO7TJEy2L_pad-12"/><circle cx="0" cy="0" r="7.85" id="JLdC2gkJjQlgD1BvdqE9_pad-1"/><circle cx="0" cy="0" r="16" id="JLdC2gkJjQlgD1BvdqE9_pad-3"/><circle cx="0" cy="0" r="25.6" id="JLdC2gkJjQlgD1BvdqE9_pad-4"/><circle cx="0" cy="0" r="45.3" id="JLdC2gkJjQlgD1BvdqE9_pad-5"/><circle cx="0" cy="0" r="94.5" id="JLdC2gkJjQlgD1BvdqE9_pad-6"/><circle cx="0" cy="0" r="37.4" id="JLdC2gkJjQlgD1BvdqE9_pad-7"/><circle cx="0" cy="0" r="59.05" id="JLdC2gkJjQlgD1BvdqE9_pad-8"/><circle cx="0" cy="0" r="98.45" id="JLdC2gkJjQlgD1BvdqE9_pad-9"/><g id="Z3Avcl27c-ouz1Ey9TBM_top_copper"><use xlink:href="#E_KSsWvWKfVJpA-zD5pi_pad-10" x="22975" y="-40920"/><use xlink:href="#E_KSsWvWKfVJpA-zD5pi_pad-10" x="84887.5" y="-59970"/><use xlink:href="#E_KSsWvWKfVJpA-zD5pi_pad-11" x="88862.5" y="-55445"/><use xlink:href="#E_KSsWvWKfVJpA-zD5pi_pad-11" x="7106.25" y="-40363.75"/><use xlink:href="#E_KSsWvWKfVJpA-zD5pi_pad-11" x="7106.25" y="-108626.25"/><use xlink:href="#E_KSsWvWKfVJpA-zD5pi_pad-11" x="136487.5" y="-108626.25"/><use xlink:href="#E_KSsWvWKfVJpA-zD5pi_pad-11" x="265868.75" y="-108626.25"/><use xlink:href="#E_KSsWvWKfVJpA-zD5pi_pad-11" x="265868.75" y="-40363.75"/><use xlink:href="#E_KSsWvWKfVJpA-zD5pi_pad-11" x="184112.5" y="-55572"/><use xlink:href="#E_KSsWvWKfVJpA-zD5pi_pad-12" x="142837.5" y="-81638.75"/><use xlink:href="#E_KSsWvWKfVJpA-zD5pi_pad-12" x="130137.5" y="-81638.75"/><use xlink:href="#E_KSsWvWKfVJpA-zD5pi_pad-10" x="27737.5" y="-98070"/><use xlink:href="#E_KSsWvWKfVJpA-zD5pi_pad-10" x="256337.5" y="-98070"/><use xlink:href="#E_KSsWvWKfVJpA-zD5pi_pad-10" x="237287.5" y="-98070"/><use xlink:href="#E_KSsWvWKfVJpA-zD5pi_pad-10" x="218237.5" y="-98070"/><use xlink:href="#E_KSsWvWKfVJpA-zD5pi_pad-10" x="127750" y="-98070"/><use xlink:href="#E_KSsWvWKfVJpA-zD5pi_pad-10" x="103937.5" y="-98070"/><use xlink:href="#E_KSsWvWKfVJpA-zD5pi_pad-10" x="84887.5" y="-98070"/><use xlink:href="#E_KSsWvWKfVJpA-zD5pi_pad-10" x="261100" y="-79020"/><use xlink:href="#E_KSsWvWKfVJpA-zD5pi_pad-10" x="237287.5" y="-79020"/><use xlink:href="#E_KSsWvWKfVJpA-zD5pi_pad-10" x="218237.5" y="-79020"/><use xlink:href="#E_KSsWvWKfVJpA-zD5pi_pad-10" x="199187.5" y="-79020"/><use xlink:href="#E_KSsWvWKfVJpA-zD5pi_pad-10" x="180137.5" y="-79020"/><use xlink:href="#E_KSsWvWKfVJpA-zD5pi_pad-10" x="161087.5" y="-79020"/><use xlink:href="#E_KSsWvWKfVJpA-zD5pi_pad-10" x="122987.5" y="-79020"/><use xlink:href="#E_KSsWvWKfVJpA-zD5pi_pad-10" x="103937.5" y="-79020"/><use xlink:href="#E_KSsWvWKfVJpA-zD5pi_pad-10" x="84887.5" y="-79020"/><use xlink:href="#E_KSsWvWKfVJpA-zD5pi_pad-10" x="65837.5" y="-79020"/><use xlink:href="#E_KSsWvWKfVJpA-zD5pi_pad-10" x="46787.5" y="-79020"/><use xlink:href="#E_KSsWvWKfVJpA-zD5pi_pad-10" x="22975" y="-79020"/><use xlink:href="#E_KSsWvWKfVJpA-zD5pi_pad-10" x="261100" y="-59970"/><use xlink:href="#E_KSsWvWKfVJpA-zD5pi_pad-10" x="237287.5" y="-59970"/><use xlink:href="#E_KSsWvWKfVJpA-zD5pi_pad-10" x="218237.5" y="-59970"/><use xlink:href="#E_KSsWvWKfVJpA-zD5pi_pad-10" x="199187.5" y="-59970"/><use xlink:href="#E_KSsWvWKfVJpA-zD5pi_pad-10" x="180137.5" y="-59970"/><use xlink:href="#E_KSsWvWKfVJpA-zD5pi_pad-10" x="161087.5" y="-59970"/><use xlink:href="#E_KSsWvWKfVJpA-zD5pi_pad-10" x="122987.5" y="-59970"/><use xlink:href="#E_KSsWvWKfVJpA-zD5pi_pad-10" x="103937.5" y="-59970"/><use xlink:href="#E_KSsWvWKfVJpA-zD5pi_pad-10" x="65837.5" y="-59970"/><use xlink:href="#E_KSsWvWKfVJpA-zD5pi_pad-10" x="46787.5" y="-59970"/><use xlink:href="#E_KSsWvWKfVJpA-zD5pi_pad-10" x="22975" y="-59970"/><use xlink:href="#E_KSsWvWKfVJpA-zD5pi_pad-10" x="261100" y="-40920"/><use xlink:href="#E_KSsWvWKfVJpA-zD5pi_pad-10" x="237287.5" y="-40920"/><use xlink:href="#E_KSsWvWKfVJpA-zD5pi_pad-10" x="218237.5" y="-40920"/><use xlink:href="#E_KSsWvWKfVJpA-zD5pi_pad-10" x="199187.5" y="-40920"/><use xlink:href="#E_KSsWvWKfVJpA-zD5pi_pad-10" x="180137.5" y="-40920"/><use xlink:href="#E_KSsWvWKfVJpA-zD5pi_pad-10" x="161087.5" y="-40920"/><use xlink:href="#E_KSsWvWKfVJpA-zD5pi_pad-10" x="122987.5" y="-40920"/><use xlink:href="#E_KSsWvWKfVJpA-zD5pi_pad-10" x="103937.5" y="-40920"/><use xlink:href="#E_KSsWvWKfVJpA-zD5pi_pad-10" x="84887.5" y="-40920"/><use xlink:href="#E_KSsWvWKfVJpA-zD5pi_pad-10" x="65837.5" y="-40920"/><use xlink:href="#E_KSsWvWKfVJpA-zD5pi_pad-10" x="46787.5" y="-40920"/><use xlink:href="#E_KSsWvWKfVJpA-zD5pi_pad-10" x="199187.5" y="-98070"/><use xlink:href="#E_KSsWvWKfVJpA-zD5pi_pad-10" x="180137.5" y="-98070"/><use xlink:href="#E_KSsWvWKfVJpA-zD5pi_pad-10" x="156325" y="-98070"/><use xlink:href="#E_KSsWvWKfVJpA-zD5pi_pad-10" x="65837.5" y="-98070"/><use xlink:href="#E_KSsWvWKfVJpA-zD5pi_pad-10" x="46787.5" y="-98070"/><use xlink:href="#E_KSsWvWKfVJpA-zD5pi_pad-13" x="128878.9" y="-41760.75"/><use xlink:href="#E_KSsWvWKfVJpA-zD5pi_pad-13" x="128878.9" y="-44300.75"/><use xlink:href="#E_KSsWvWKfVJpA-zD5pi_pad-13" x="128878.9" y="-46840.75"/><use xlink:href="#E_KSsWvWKfVJpA-zD5pi_pad-13" x="128878.9" y="-49380.75"/><use xlink:href="#E_KSsWvWKfVJpA-zD5pi_pad-13" x="128878.9" y="-51920.75"/><use xlink:href="#E_KSsWvWKfVJpA-zD5pi_pad-13" x="128878.9" y="-54460.75"/><use xlink:href="#E_KSsWvWKfVJpA-zD5pi_pad-13" x="128878.9" y="-57000.75"/><use xlink:href="#E_KSsWvWKfVJpA-zD5pi_pad-13" x="128878.9" y="-59540.75"/><use xlink:href="#E_KSsWvWKfVJpA-zD5pi_pad-13" x="128878.9" y="-62080.75"/><use xlink:href="#E_KSsWvWKfVJpA-zD5pi_pad-13" x="128878.9" y="-64620.75"/><use xlink:href="#E_KSsWvWKfVJpA-zD5pi_pad-13" x="128878.9" y="-67160.75"/><use xlink:href="#E_KSsWvWKfVJpA-zD5pi_pad-13" x="128878.9" y="-69700.75"/><use xlink:href="#E_KSsWvWKfVJpA-zD5pi_pad-13" x="144098.9" y="-69700.75"/><use xlink:href="#E_KSsWvWKfVJpA-zD5pi_pad-13" x="144098.9" y="-67160.75"/><use xlink:href="#E_KSsWvWKfVJpA-zD5pi_pad-13" x="144098.9" y="-64620.75"/><use xlink:href="#E_KSsWvWKfVJpA-zD5pi_pad-13" x="144098.9" y="-62080.75"/><use xlink:href="#E_KSsWvWKfVJpA-zD5pi_pad-13" x="144098.9" y="-59540.75"/><use xlink:href="#E_KSsWvWKfVJpA-zD5pi_pad-13" x="144098.9" y="-57000.75"/><use xlink:href="#E_KSsWvWKfVJpA-zD5pi_pad-13" x="144098.9" y="-54460.75"/><use xlink:href="#E_KSsWvWKfVJpA-zD5pi_pad-13" x="144098.9" y="-51920.75"/><use xlink:href="#E_KSsWvWKfVJpA-zD5pi_pad-13" x="144098.9" y="-49380.75"/><use xlink:href="#E_KSsWvWKfVJpA-zD5pi_pad-13" x="144098.9" y="-46840.75"/><use xlink:href="#E_KSsWvWKfVJpA-zD5pi_pad-13" x="144098.9" y="-44300.75"/><use xlink:href="#E_KSsWvWKfVJpA-zD5pi_pad-13" x="144098.9" y="-41760.75"/><use xlink:href="#E_KSsWvWKfVJpA-zD5pi_pad-14" x="139737.5" y="-87195"/><use xlink:href="#E_KSsWvWKfVJpA-zD5pi_pad-14" x="133237.5" y="-87195"/><use xlink:href="#E_KSsWvWKfVJpA-zD5pi_pad-15" x="159728.5" y="-47825"/><use xlink:href="#E_KSsWvWKfVJpA-zD5pi_pad-15" x="163538.5" y="-51635"/><use xlink:href="#E_KSsWvWKfVJpA-zD5pi_pad-15" x="126265.51" y="-72717"/><use xlink:href="#E_KSsWvWKfVJpA-zD5pi_pad-15" x="111214.5" y="-75384"/><use xlink:href="#E_KSsWvWKfVJpA-zD5pi_pad-15" x="32982.5" y="-53540"/><use xlink:href="#E_KSsWvWKfVJpA-zD5pi_pad-15" x="32982.5" y="-65097"/><use xlink:href="#E_KSsWvWKfVJpA-zD5pi_pad-15" x="32982.5" y="-72463"/><use xlink:href="#E_KSsWvWKfVJpA-zD5pi_pad-15" x="32982.5" y="-84147"/><use xlink:href="#E_KSsWvWKfVJpA-zD5pi_pad-15" x="32982.5" y="-91259"/><use xlink:href="#E_KSsWvWKfVJpA-zD5pi_pad-15" x="32855.5" y="-103197"/><use xlink:href="#E_KSsWvWKfVJpA-zD5pi_pad-15" x="126962.5" y="-73733"/><use xlink:href="#E_KSsWvWKfVJpA-zD5pi_pad-15" x="112484.5" y="-76019"/><use xlink:href="#E_KSsWvWKfVJpA-zD5pi_pad-15" x="34887.5" y="-76011"/><use xlink:href="#E_KSsWvWKfVJpA-zD5pi_pad-15" x="51905.5" y="-53540"/><use xlink:href="#E_KSsWvWKfVJpA-zD5pi_pad-15" x="51905.5" y="-64970"/><use xlink:href="#E_KSsWvWKfVJpA-zD5pi_pad-15" x="52032.5" y="-72463"/><use xlink:href="#E_KSsWvWKfVJpA-zD5pi_pad-15" x="51905.5" y="-84147"/><use xlink:href="#E_KSsWvWKfVJpA-zD5pi_pad-15" x="52032.5" y="-91386"/><use xlink:href="#E_KSsWvWKfVJpA-zD5pi_pad-15" x="52032.5" y="-103197"/><use xlink:href="#E_KSsWvWKfVJpA-zD5pi_pad-15" x="130645.5" y="-91513"/><use xlink:href="#E_KSsWvWKfVJpA-zD5pi_pad-15" x="113627.5" y="-95315"/><use xlink:href="#E_KSsWvWKfVJpA-zD5pi_pad-15" x="54064.5" y="-95450"/><use xlink:href="#E_KSsWvWKfVJpA-zD5pi_pad-15" x="71082.5" y="-53413"/><use xlink:href="#E_KSsWvWKfVJpA-zD5pi_pad-15" x="71209.5" y="-65097"/><use xlink:href="#E_KSsWvWKfVJpA-zD5pi_pad-15" x="71082.5" y="-72590"/><use xlink:href="#E_KSsWvWKfVJpA-zD5pi_pad-15" x="70955.5" y="-84147"/><use xlink:href="#E_KSsWvWKfVJpA-zD5pi_pad-15" x="71082.5" y="-91513"/><use xlink:href="#E_KSsWvWKfVJpA-zD5pi_pad-15" x="71082.5" y="-103197"/><use xlink:href="#E_KSsWvWKfVJpA-zD5pi_pad-15" x="128867.5" y="-91513"/><use xlink:href="#E_KSsWvWKfVJpA-zD5pi_pad-15" x="111087.5" y="-94688"/><use xlink:href="#E_KSsWvWKfVJpA-zD5pi_pad-15" x="90132.5" y="-72463"/><use xlink:href="#E_KSsWvWKfVJpA-zD5pi_pad-15" x="90132.5" y="-84020"/><use xlink:href="#E_KSsWvWKfVJpA-zD5pi_pad-15" x="90132.5" y="-91513"/><use xlink:href="#E_KSsWvWKfVJpA-zD5pi_pad-15" x="90132.5" y="-103324"/><use xlink:href="#E_KSsWvWKfVJpA-zD5pi_pad-15" x="90132.5" y="-45920"/><use xlink:href="#E_KSsWvWKfVJpA-zD5pi_pad-15" x="90132.5" y="-61033"/><use xlink:href="#E_KSsWvWKfVJpA-zD5pi_pad-15" x="90107.1" y="-51711.2"/><use xlink:href="#E_KSsWvWKfVJpA-zD5pi_pad-15" x="109182.5" y="-53413"/><use xlink:href="#E_KSsWvWKfVJpA-zD5pi_pad-15" x="109182.5" y="-64970"/><use xlink:href="#E_KSsWvWKfVJpA-zD5pi_pad-15" x="109182.5" y="-72463"/><use xlink:href="#E_KSsWvWKfVJpA-zD5pi_pad-15" x="109309.5" y="-84020"/><use xlink:href="#E_KSsWvWKfVJpA-zD5pi_pad-15" x="109055.5" y="-91259"/><use xlink:href="#E_KSsWvWKfVJpA-zD5pi_pad-15" x="113881.5" y="-102943"/><use xlink:href="#E_KSsWvWKfVJpA-zD5pi_pad-15" x="109182.5" y="-45920"/><use xlink:href="#E_KSsWvWKfVJpA-zD5pi_pad-15" x="147282.5" y="-55318"/><use xlink:href="#E_KSsWvWKfVJpA-zD5pi_pad-15" x="147409.5" y="-64970"/><use xlink:href="#E_KSsWvWKfVJpA-zD5pi_pad-15" x="147282.5" y="-72336"/><use xlink:href="#E_KSsWvWKfVJpA-zD5pi_pad-15" x="147282.5" y="-84020"/><use xlink:href="#E_KSsWvWKfVJpA-zD5pi_pad-15" x="147282.5" y="-91259"/><use xlink:href="#E_KSsWvWKfVJpA-zD5pi_pad-15" x="142456.5" y="-102689"/><use xlink:href="#E_KSsWvWKfVJpA-zD5pi_pad-15" x="166332.5" y="-53159"/><use xlink:href="#E_KSsWvWKfVJpA-zD5pi_pad-15" x="166332.5" y="-64589"/><use xlink:href="#E_KSsWvWKfVJpA-zD5pi_pad-15" x="166332.5" y="-72209"/><use xlink:href="#E_KSsWvWKfVJpA-zD5pi_pad-15" x="166332.5" y="-84020"/><use xlink:href="#E_KSsWvWKfVJpA-zD5pi_pad-15" x="166332.5" y="-91640"/><use xlink:href="#E_KSsWvWKfVJpA-zD5pi_pad-15" x="166332.5" y="-102943"/><use xlink:href="#E_KSsWvWKfVJpA-zD5pi_pad-15" x="160998.5" y="-55318"/><use xlink:href="#E_KSsWvWKfVJpA-zD5pi_pad-15" x="185382.5" y="-64716"/><use xlink:href="#E_KSsWvWKfVJpA-zD5pi_pad-15" x="185382.5" y="-72209"/><use xlink:href="#E_KSsWvWKfVJpA-zD5pi_pad-15" x="185382.5" y="-84020"/><use xlink:href="#E_KSsWvWKfVJpA-zD5pi_pad-15" x="185382.5" y="-91767"/><use xlink:href="#E_KSsWvWKfVJpA-zD5pi_pad-15" x="185382.5" y="-102943"/><use xlink:href="#E_KSsWvWKfVJpA-zD5pi_pad-15" x="161887.5" y="-56207"/><use xlink:href="#E_KSsWvWKfVJpA-zD5pi_pad-15" x="164935.5" y="-56334"/><use xlink:href="#E_KSsWvWKfVJpA-zD5pi_pad-15" x="187287.5" y="-53641.6"/><use xlink:href="#E_KSsWvWKfVJpA-zD5pi_pad-15" x="204432.5" y="-53286"/><use xlink:href="#E_KSsWvWKfVJpA-zD5pi_pad-15" x="204432.5" y="-64716"/><use xlink:href="#E_KSsWvWKfVJpA-zD5pi_pad-15" x="204432.5" y="-72082"/><use xlink:href="#E_KSsWvWKfVJpA-zD5pi_pad-15" x="204432.5" y="-83893"/><use xlink:href="#E_KSsWvWKfVJpA-zD5pi_pad-15" x="204432.5" y="-91640"/><use xlink:href="#E_KSsWvWKfVJpA-zD5pi_pad-15" x="204432.5" y="-103070"/><use xlink:href="#E_KSsWvWKfVJpA-zD5pi_pad-15" x="223482.5" y="-53286"/><use xlink:href="#E_KSsWvWKfVJpA-zD5pi_pad-15" x="223482.5" y="-64716"/><use xlink:href="#E_KSsWvWKfVJpA-zD5pi_pad-15" x="223482.5" y="-72082"/><use xlink:href="#E_KSsWvWKfVJpA-zD5pi_pad-15" x="223482.5" y="-83893"/><use xlink:href="#E_KSsWvWKfVJpA-zD5pi_pad-15" x="223355.5" y="-91513"/><use xlink:href="#E_KSsWvWKfVJpA-zD5pi_pad-15" x="223355.5" y="-103070"/><use xlink:href="#E_KSsWvWKfVJpA-zD5pi_pad-15" x="139662.5" y="-75003"/><use xlink:href="#E_KSsWvWKfVJpA-zD5pi_pad-15" x="247231.5" y="-53286"/><use xlink:href="#E_KSsWvWKfVJpA-zD5pi_pad-15" x="247231.5" y="-64843"/><use xlink:href="#E_KSsWvWKfVJpA-zD5pi_pad-15" x="247231.5" y="-72082"/><use xlink:href="#E_KSsWvWKfVJpA-zD5pi_pad-15" x="247231.5" y="-84020"/><use xlink:href="#E_KSsWvWKfVJpA-zD5pi_pad-15" x="247231.5" y="-91386"/><use xlink:href="#E_KSsWvWKfVJpA-zD5pi_pad-15" x="242405.5" y="-103197"/><use xlink:href="#E_KSsWvWKfVJpA-zD5pi_pad-15" x="140805.5" y="-75892"/><path d="M 159728.5 -47825 163538.5 -51635" fill="none" stroke-width="254"/><path d="M 143021.27 -46840.75 144098.9 -46840.75 M 132496.53 -46840.75 143021.27 -46840.75 M 129956.53 -44300.75 132496.53 -46840.75 M 128878.9 -44300.75 129956.53 -44300.75 M 144098.9 -46840.75 144098.9 -49380.75 M 137630.5 -55849.15 144098.9 -49380.75 M 137630.5 -78305 137630.5 -55849.15 M 139737.5 -80412 137630.5 -78305 M 139737.5 -87195 139737.5 -80412" fill="none" stroke-width="381"/><path d="M 126265.51 -72717 126265.51 -74175.99 M 125057.5 -75384 111214.5 -75384 M 126265.51 -74175.99 125057.5 -75384 M 32982.5 -53540 32982.5 -65097 M 32982.5 -103070 32855.5 -103197 M 32982.5 -91259 32982.5 -103070 M 125100.764 -76019 112484.5 -76019 M 126962.5 -74157.264 125100.764 -76019 M 126962.5 -73733 126962.5 -74157.264 M 32990.5 -76011 32982.5 -76019 M 34887.5 -76011 32990.5 -76011 M 32982.5 -76019 32982.5 -84147 M 32982.5 -72463 32982.5 -76019 M 51905.5 -53540 51905.5 -64970 M 52032.5 -84020 51905.5 -84147 M 52032.5 -72463 52032.5 -84020 M 130645.5 -91513 130645.5 -94307 M 129637.5 -95315 113627.5 -95315 M 130645.5 -94307 129637.5 -95315 M 52159.5 -95450 52032.5 -95323 M 54064.5 -95450 52159.5 -95450 M 52032.5 -95323 52032.5 -103197 M 52032.5 -91386 52032.5 -95323 M 71082.5 -64970 71209.5 -65097 M 71082.5 -53413 71082.5 -64970 M 71082.5 -84020 70955.5 -84147 M 71082.5 -72590 71082.5 -84020 M 71082.5 -91513 71082.5 -103197 M 128867.5 -91513 128867.5 -93926 128105.5 -94688 111087.5 -94688 M 90132.5 -72463 90132.5 -84020 M 90132.5 -91513 90132.5 -103324 M 90132.5 -45920 96736.5 -39316 M 141654.15 -39316 144098.9 -41760.75 M 96736.5 -39316 141654.15 -39316 M 91148.5 -60017 90132.5 -61033 M 92545.5 -60017 91148.5 -60017 M 92545.5 -54149.6 92545.5 -60017 M 90107.1 -51711.2 92545.5 -54149.6 M 109182.5 -53413 109182.5 -64970 M 109182.5 -83893 109309.5 -84020 M 109182.5 -72463 109182.5 -83893 M 109055.5 -91259 109055.5 -101292 M 110706.5 -102943 113881.5 -102943 M 109055.5 -101292 110706.5 -102943 M 134487.25 -44300.75 144098.9 -44300.75 M 130391.5 -40205 134487.25 -44300.75 M 124422.5 -42745 126962.5 -40205 130391.5 -40205 M 112357.5 -42745 124422.5 -42745 M 109182.5 -45920 112357.5 -42745 M 133237.5 -51199.35 128878.9 -46840.75 M 133237.5 -87195 133237.5 -51199.35 M 147282.5 -64843 147409.5 -64970 M 147282.5 -55318 147282.5 -64843 M 147282.5 -72336 147282.5 -84020 M 147282.5 -91259 147282.5 -98498 145504.5 -100276 143853.5 -100276 M 142456.5 -101673 142456.5 -102689 M 143853.5 -100276 142456.5 -101673 M 166332.5 -72209 166332.5 -84020 M 166332.5 -91640 166332.5 -102943 M 166332.5 -55318 166332.5 -64589 M 160998.5 -55318 166332.5 -55318 M 166332.5 -53159 166332.5 -55318 M 185382.5 -72209 185382.5 -84020 M 185382.5 -91767 185382.5 -102943 M 164808.5 -56207 164935.5 -56334 M 161887.5 -56207 164808.5 -56207 M 188011.4 -54365.5 187287.5 -53641.6 M 188049.5 -62049 188011.4 -62087.1 188011.4 -54365.5 M 188011.4 -62087.1 185382.5 -64716 M 204432.5 -53286 204432.5 -64716 M 204432.5 -72082 204432.5 -83893 M 204432.5 -91640 204432.5 -103070 M 223482.5 -53286 223482.5 -64716 M 223482.5 -72082 223482.5 -83893 M 223355.5 -91513 223355.5 -103070 M 144098.9 -67160.75 140964.25 -67160.75 139662.5 -68462.5 139662.5 -75003 M 247231.5 -53286 247231.5 -64843 M 247231.5 -72082 247231.5 -84020 M 242405.5 -96212 242405.5 -103197 M 247231.5 -91386 242405.5 -96212 M 144098.9 -69700.75 141916.75 -69700.75 140805.5 -70812 140805.5 -75892" fill="none" stroke-width="254"/></g><g id="Z3Avcl27c-ouz1Ey9TBM_top_silkscreen"><path d="M 133025.378 -95735.071 132692.045 -95735.071 M 132692.045 -96258.88 132692.045 -95258.88 133168.235 -95258.88 M 133692.045 -96258.88 133596.807 -96211.261 133549.188 -96116.023 133549.188 -95258.88 M 134501.569 -96258.88 134501.569 -95735.071 134453.95 -95639.833 134358.711 -95592.214 134168.235 -95592.214 134072.997 -95639.833 M 134501.569 -96211.261 134406.33 -96258.88 134168.235 -96258.88 134072.997 -96211.261 134025.378 -96116.023 134025.378 -96020.785 134072.997 -95925.547 134168.235 -95877.928 134406.33 -95877.928 134501.569 -95830.309 M 134977.759 -95592.214 134977.759 -96258.88 M 134977.759 -95687.452 135025.378 -95639.833 135120.616 -95592.214 135263.473 -95592.214 135358.711 -95639.833 135406.33 -95735.071 135406.33 -96258.88 M 136311.092 -96211.261 136215.854 -96258.88 136025.378 -96258.88 135930.14 -96211.261 135882.521 -96163.642 135834.902 -96068.404 135834.902 -95782.69 135882.521 -95687.452 135930.14 -95639.833 136025.378 -95592.214 136215.854 -95592.214 136311.092 -95639.833 M 136739.664 -96258.88 136739.664 -95258.88 M 136834.902 -95877.928 137120.616 -96258.88 M 137120.616 -95592.214 136739.664 -95973.166 M 138215.854 -95592.214 138453.95 -96258.88 138692.045 -95592.214 M 139596.807 -96258.88 139025.378 -96258.88 M 139311.092 -96258.88 139311.092 -95258.88 139215.854 -95401.738 139120.616 -95496.976 139025.378 -95544.595 M 140025.378 -96163.642 140072.997 -96211.261 140025.378 -96258.88 139977.759 -96211.261 140025.378 -96163.642 140025.378 -96258.88 M 141025.378 -96258.88 140453.95 -96258.88 M 140739.664 -96258.88 140739.664 -95258.88 140644.426 -95401.738 140549.188 -95496.976 140453.95 -95544.595 M 142215.854 -96258.88 142215.854 -95258.88 142596.807 -95258.88 142692.045 -95306.5 142739.664 -95354.119 142787.283 -95449.357 142787.283 -95592.214 142739.664 -95687.452 142692.045 -95735.071 142596.807 -95782.69 142215.854 -95782.69 M 143787.283 -96163.642 143739.664 -96211.261 143596.807 -96258.88 143501.569 -96258.88 143358.711 -96211.261 143263.473 -96116.023 143215.854 -96020.785 143168.235 -95830.309 143168.235 -95687.452 143215.854 -95496.976 143263.473 -95401.738 143358.711 -95306.5 143501.569 -95258.88 143596.807 -95258.88 143739.664 -95306.5 143787.283 -95354.119 M 144549.188 -95735.071 144692.045 -95782.69 144739.664 -95830.309 144787.283 -95925.547 144787.283 -96068.404 144739.664 -96163.642 144692.045 -96211.261 144596.807 -96258.88 144215.854 -96258.88 144215.854 -95258.88 144549.188 -95258.88 144644.426 -95306.5 144692.045 -95354.119 144739.664 -95449.357 144739.664 -95544.595 144692.045 -95639.833 144644.426 -95687.452 144549.188 -95735.071 144215.854 -95735.071 M 132549.188 -96883.88 133120.616 -96883.88 M 132834.902 -97883.88 132834.902 -96883.88 M 133596.807 -97883.88 133501.569 -97836.261 133453.95 -97788.642 133406.33 -97693.404 133406.33 -97407.69 133453.95 -97312.452 133501.569 -97264.833 133596.807 -97217.214 133739.664 -97217.214 133834.902 -97264.833 133882.521 -97312.452 133930.14 -97407.69 133930.14 -97693.404 133882.521 -97788.642 133834.902 -97836.261 133739.664 -97883.88 133596.807 -97883.88 M 135120.616 -97883.88 135120.616 -96883.88 135692.045 -97883.88 135692.045 -96883.88 M 136596.807 -97883.88 136596.807 -97360.071 136549.188 -97264.833 136453.95 -97217.214 136263.473 -97217.214 136168.235 -97264.833 M 136596.807 -97836.261 136501.569 -97883.88 136263.473 -97883.88 136168.235 -97836.261 136120.616 -97741.023 136120.616 -97645.785 136168.235 -97550.547 136263.473 -97502.928 136501.569 -97502.928 136596.807 -97455.309 M 137501.569 -97217.214 137501.569 -98026.738 137453.95 -98121.976 137406.33 -98169.595 137311.092 -98217.214 137168.235 -98217.214 137072.997 -98169.595 M 137501.569 -97836.261 137406.33 -97883.88 137215.854 -97883.88 137120.616 -97836.261 137072.997 -97788.642 137025.378 -97693.404 137025.378 -97407.69 137072.997 -97312.452 137120.616 -97264.833 137215.854 -97217.214 137406.33 -97217.214 137501.569 -97264.833 M 137977.759 -97883.88 137977.759 -97217.214 M 137977.759 -96883.88 137930.14 -96931.5 137977.759 -96979.119 138025.378 -96931.5 137977.759 -96883.88 137977.759 -96979.119 M 132644.426 -98604.119 132692.045 -98556.5 132787.283 -98508.88 133025.378 -98508.88 133120.616 -98556.5 133168.235 -98604.119 133215.854 -98699.357 133215.854 -98794.595 133168.235 -98937.452 132596.807 -99508.88 133215.854 -99508.88 M 133834.902 -98508.88 133930.14 -98508.88 134025.378 -98556.5 134072.997 -98604.119 134120.616 -98699.357 134168.235 -98889.833 134168.235 -99127.928 134120.616 -99318.404 134072.997 -99413.642 134025.378 -99461.261 133930.14 -99508.88 133834.902 -99508.88 133739.664 -99461.261 133692.045 -99413.642 133644.426 -99318.404 133596.807 -99127.928 133596.807 -98889.833 133644.426 -98699.357 133692.045 -98604.119 133739.664 -98556.5 133834.902 -98508.88 M 134549.188 -98604.119 134596.807 -98556.5 134692.045 -98508.88 134930.14 -98508.88 135025.378 -98556.5 135072.997 -98604.119 135120.616 -98699.357 135120.616 -98794.595 135072.997 -98937.452 134501.569 -99508.88 135120.616 -99508.88 M 135739.664 -98508.88 135834.902 -98508.88 135930.14 -98556.5 135977.759 -98604.119 136025.378 -98699.357 136072.997 -98889.833 136072.997 -99127.928 136025.378 -99318.404 135977.759 -99413.642 135930.14 -99461.261 135834.902 -99508.88 135739.664 -99508.88 135644.426 -99461.261 135596.807 -99413.642 135549.188 -99318.404 135501.569 -99127.928 135501.569 -98889.833 135549.188 -98699.357 135596.807 -98604.119 135644.426 -98556.5 135739.664 -98508.88 M 136501.569 -99413.642 136549.188 -99461.261 136501.569 -99508.88 136453.95 -99461.261 136501.569 -99413.642 136501.569 -99508.88 M 137501.569 -99508.88 136930.14 -99508.88 M 137215.854 -99508.88 137215.854 -98508.88 137120.616 -98651.738 137025.378 -98746.976 136930.14 -98794.595 M 138120.616 -98508.88 138215.854 -98508.88 138311.092 -98556.5 138358.711 -98604.119 138406.33 -98699.357 138453.95 -98889.833 138453.95 -99127.928 138406.33 -99318.404 138358.711 -99413.642 138311.092 -99461.261 138215.854 -99508.88 138120.616 -99508.88 138025.378 -99461.261 137977.759 -99413.642 137930.14 -99318.404 137882.521 -99127.928 137882.521 -98889.833 137930.14 -98699.357 137977.759 -98604.119 138025.378 -98556.5 138120.616 -98508.88 M 138882.521 -99413.642 138930.14 -99461.261 138882.521 -99508.88 138834.902 -99461.261 138882.521 -99413.642 138882.521 -99508.88 M 139882.521 -99508.88 139311.092 -99508.88 M 139596.807 -99508.88 139596.807 -98508.88 139501.569 -98651.738 139406.33 -98746.976 139311.092 -98794.595 M 140358.711 -99508.88 140549.188 -99508.88 140644.426 -99461.261 140692.045 -99413.642 140787.283 -99270.785 140834.902 -99080.309 140834.902 -98699.357 140787.283 -98604.119 140739.664 -98556.5 140644.426 -98508.88 140453.95 -98508.88 140358.711 -98556.5 140311.092 -98604.119 140263.473 -98699.357 140263.473 -98937.452 140311.092 -99032.69 140358.711 -99080.309 140453.95 -99127.928 140644.426 -99127.928 140739.664 -99080.309 140787.283 -99032.69 140834.902 -98937.452 M 132692.045 -100752.928 133453.95 -100752.928 M 133930.14 -100752.928 134692.045 -100752.928 M 135930.14 -100467.214 135930.14 -101467.214 M 135930.14 -100514.833 136025.378 -100467.214 136215.854 -100467.214 136311.092 -100514.833 136358.711 -100562.452 136406.33 -100657.69 136406.33 -100943.404 136358.711 -101038.642 136311.092 -101086.261 136215.854 -101133.88 136025.378 -101133.88 135930.14 -101086.261 M 136977.759 -101133.88 136882.521 -101086.261 136834.902 -100991.023 136834.902 -100133.88 M 137787.283 -100467.214 137787.283 -101133.88 M 137358.711 -100467.214 137358.711 -100991.023 137406.33 -101086.261 137501.569 -101133.88 137644.426 -101133.88 137739.664 -101086.261 137787.283 -101038.642 M 138215.854 -101086.261 138311.092 -101133.88 138501.569 -101133.88 138596.807 -101086.261 138644.426 -100991.023 138644.426 -100943.404 138596.807 -100848.166 138501.569 -100800.547 138358.711 -100800.547 138263.473 -100752.928 138215.854 -100657.69 138215.854 -100610.071 138263.473 -100514.833 138358.711 -100467.214 138501.569 -100467.214 138596.807 -100514.833 M 139072.997 -101133.88 139072.997 -100133.88 M 139168.235 -100752.928 139453.95 -101133.88 M 139453.95 -100467.214 139072.997 -100848.166 M 139882.521 -101133.88 139882.521 -100467.214 M 139882.521 -100133.88 139834.902 -100181.5 139882.521 -100229.119 139930.14 -100181.5 139882.521 -100133.88 139882.521 -100229.119 M 140787.283 -101133.88 140787.283 -100133.88 M 140787.283 -101086.261 140692.045 -101133.88 140501.569 -101133.88 140406.33 -101086.261 140358.711 -101038.642 140311.092 -100943.404 140311.092 -100657.69 140358.711 -100562.452 140406.33 -100514.833 140501.569 -100467.214 140692.045 -100467.214 140787.283 -100514.833" fill="none" stroke-width="125"/><path d="M 145237.5 -70838.75 144377.5 -70838.75 M 127737.5 -70838.75 128587.5 -70838.75 M 145237.5 -69988.75 145237.5 -70838.75 M 127737.5 -69938.75 127737.5 -70838.75 M 145237.5 -40638.75 144437.5 -40638.75 M 127737.5 -40638.75 128587.5 -40638.75 M 145237.5 -40638.75 145237.5 -41488.75 M 127737.5 -40638.75 127737.5 -41488.75 M 132737.5 -35038.75 132737.5 -36338.75 140237.5 -36338.75 140237.5 -35038.75 132737.5 -35038.75 M 135987.5 -35388.75 136987.5 -35388.75 136487.5 -36038.75 135987.5 -35388.75 M 136137.5 -35538.75 136837.5 -35538.75 M 136237.5 -35688.75 136737.5 -35688.75 M 136337.5 -35838.75 136637.5 -35838.75 M 133637.5 -88795 133637.5 -88545 M 139337.5 -88795 133637.5 -88795 M 139337.5 -88795 139337.5 -88545 M 139337.5 -85595 139337.5 -85845 M 133637.5 -85595 133637.5 -85845 M 139337.5 -85595 133637.5 -85595" fill="none" stroke-width="150"/><path d="M 131029.88 -42078.035 130806.547 -41720.892 M 130647.023 -42078.035 130647.023 -41328.035 130902.261 -41328.035 130966.071 -41363.75 130997.976 -41399.464 131029.88 -41470.892 131029.88 -41578.035 130997.976 -41649.464 130966.071 -41685.178 130902.261 -41720.892 130647.023 -41720.892 M 131285.119 -41863.75 131604.166 -41863.75 M 131221.309 -42078.035 131444.642 -41328.035 131667.976 -42078.035 M 131827.5 -41328.035 131987.023 -42078.035 132114.642 -41542.321 132242.261 -42078.035 132401.785 -41328.035 M 130982.023 -43913.75 130918.214 -43878.035 130822.5 -43878.035 130726.785 -43913.75 130662.976 -43985.178 130631.071 -44056.607 130599.166 -44199.464 130599.166 -44306.607 130631.071 -44449.464 130662.976 -44520.892 130726.785 -44592.321 130822.5 -44628.035 130886.309 -44628.035 130982.023 -44592.321 131013.928 -44556.607 131013.928 -44306.607 130886.309 -44306.607 M 131301.071 -44628.035 131301.071 -43878.035 131683.928 -44628.035 131683.928 -43878.035 M 132002.976 -44628.035 132002.976 -43878.035 132162.5 -43878.035 132258.214 -43913.75 132322.023 -43985.178 132353.928 -44056.607 132385.833 -44199.464 132385.833 -44306.607 132353.928 -44449.464 132322.023 -44520.892 132258.214 -44592.321 132162.5 -44628.035 132002.976 -44628.035 M 131125.595 -47178.035 130902.261 -46820.892 M 130742.738 -47178.035 130742.738 -46428.035 130997.976 -46428.035 131061.785 -46463.75 131093.69 -46499.464 131125.595 -46570.892 131125.595 -46678.035 131093.69 -46749.464 131061.785 -46785.178 130997.976 -46820.892 130742.738 -46820.892 M 131380.833 -47142.321 131476.547 -47178.035 131636.071 -47178.035 131699.88 -47142.321 131731.785 -47106.607 131763.69 -47035.178 131763.69 -46963.75 131731.785 -46892.321 131699.88 -46856.607 131636.071 -46820.892 131508.452 -46785.178 131444.642 -46749.464 131412.738 -46713.75 131380.833 -46642.321 131380.833 -46570.892 131412.738 -46499.464 131444.642 -46463.75 131508.452 -46428.035 131667.976 -46428.035 131763.69 -46463.75 M 131955.119 -46428.035 132337.976 -46428.035 M 132146.547 -47178.035 132146.547 -46428.035 M 130599.166 -48878.035 130822.5 -49628.035 131045.833 -48878.035 M 131652.023 -49556.607 131620.119 -49592.321 131524.404 -49628.035 131460.595 -49628.035 131364.88 -49592.321 131301.071 -49520.892 131269.166 -49449.464 131237.261 -49306.607 131237.261 -49199.464 131269.166 -49056.607 131301.071 -48985.178 131364.88 -48913.75 131460.595 -48878.035 131524.404 -48878.035 131620.119 -48913.75 131652.023 -48949.464 M 132322.023 -49556.607 132290.119 -49592.321 132194.404 -49628.035 132130.595 -49628.035 132034.88 -49592.321 131971.071 -49520.892 131939.166 -49449.464 131907.261 -49306.607 131907.261 -49199.464 131939.166 -49056.607 131971.071 -48985.178 132034.88 -48913.75 132130.595 -48878.035 132194.404 -48878.035 132290.119 -48913.75 132322.023 -48949.464 M 130656.785 -52113.75 130975.833 -52113.75 M 130592.976 -52328.035 130816.309 -51578.035 131039.642 -52328.035 M 131199.166 -51578.035 131613.928 -51578.035 131390.595 -51863.75 131486.309 -51863.75 131550.119 -51899.464 131582.023 -51935.178 131613.928 -52006.607 131613.928 -52185.178 131582.023 -52256.607 131550.119 -52292.321 131486.309 -52328.035 131294.88 -52328.035 131231.071 -52292.321 131199.166 -52256.607 M 132379.642 -51542.321 131805.357 -52506.607 M 132826.309 -51935.178 132602.976 -51935.178 M 132602.976 -52328.035 132602.976 -51578.035 132922.023 -51578.035 M 133464.404 -51828.035 133464.404 -52328.035 M 133304.88 -51542.321 133145.357 -52078.035 133560.119 -52078.035 M 130656.785 -54613.75 130975.833 -54613.75 M 130592.976 -54828.035 130816.309 -54078.035 131039.642 -54828.035 M 131231.071 -54149.464 131262.976 -54113.75 131326.785 -54078.035 131486.309 -54078.035 131550.119 -54113.75 131582.023 -54149.464 131613.928 -54220.892 131613.928 -54292.321 131582.023 -54399.464 131199.166 -54828.035 131613.928 -54828.035 M 132379.642 -54042.321 131805.357 -55006.607 M 132826.309 -54435.178 132602.976 -54435.178 M 132602.976 -54828.035 132602.976 -54078.035 132922.023 -54078.035 M 133496.309 -54078.035 133177.261 -54078.035 133145.357 -54435.178 133177.261 -54399.464 133241.071 -54363.75 133400.595 -54363.75 133464.404 -54399.464 133496.309 -54435.178 133528.214 -54506.607 133528.214 -54685.178 133496.309 -54756.607 133464.404 -54792.321 133400.595 -54828.035 133241.071 -54828.035 133177.261 -54792.321 133145.357 -54756.607 M 130656.785 -57113.75 130975.833 -57113.75 M 130592.976 -57328.035 130816.309 -56578.035 131039.642 -57328.035 M 131613.928 -57328.035 131231.071 -57328.035 M 131422.5 -57328.035 131422.5 -56578.035 131358.69 -56685.178 131294.88 -56756.607 131231.071 -56792.321 M 132379.642 -56542.321 131805.357 -57506.607 M 132826.309 -56935.178 132602.976 -56935.178 M 132602.976 -57328.035 132602.976 -56578.035 132922.023 -56578.035 M 133464.404 -56578.035 133336.785 -56578.035 133272.976 -56613.75 133241.071 -56649.464 133177.261 -56756.607 133145.357 -56899.464 133145.357 -57185.178 133177.261 -57256.607 133209.166 -57292.321 133272.976 -57328.035 133400.595 -57328.035 133464.404 -57292.321 133496.309 -57256.607 133528.214 -57185.178 133528.214 -57006.607 133496.309 -56935.178 133464.404 -56899.464 133400.595 -56863.75 133272.976 -56863.75 133209.166 -56899.464 133177.261 -56935.178 133145.357 -57006.607 M 130656.785 -59663.75 130975.833 -59663.75 M 130592.976 -59878.035 130816.309 -59128.035 131039.642 -59878.035 M 131390.595 -59128.035 131454.404 -59128.035 131518.214 -59163.75 131550.119 -59199.464 131582.023 -59270.892 131613.928 -59413.75 131613.928 -59592.321 131582.023 -59735.178 131550.119 -59806.607 131518.214 -59842.321 131454.404 -59878.035 131390.595 -59878.035 131326.785 -59842.321 131294.88 -59806.607 131262.976 -59735.178 131231.071 -59592.321 131231.071 -59413.75 131262.976 -59270.892 131294.88 -59199.464 131326.785 -59163.75 131390.595 -59128.035 M 132379.642 -59092.321 131805.357 -60056.607 M 132826.309 -59485.178 132602.976 -59485.178 M 132602.976 -59878.035 132602.976 -59128.035 132922.023 -59128.035 M 133113.452 -59128.035 133560.119 -59128.035 133272.976 -59878.035 M 130959.88 -62428.035 130577.023 -62428.035 M 130768.452 -62428.035 130768.452 -61678.035 130704.642 -61785.178 130640.833 -61856.607 130577.023 -61892.321 M 131566.071 -61678.035 131247.023 -61678.035 131215.119 -62035.178 131247.023 -61999.464 131310.833 -61963.75 131470.357 -61963.75 131534.166 -61999.464 131566.071 -62035.178 131597.976 -62106.607 131597.976 -62285.178 131566.071 -62356.607 131534.166 -62392.321 131470.357 -62428.035 131310.833 -62428.035 131247.023 -62392.321 131215.119 -62356.607 M 132363.69 -61642.321 131789.404 -62606.607 M 132810.357 -62035.178 132906.071 -62070.892 132937.976 -62106.607 132969.88 -62178.035 132969.88 -62285.178 132937.976 -62356.607 132906.071 -62392.321 132842.261 -62428.035 132587.023 -62428.035 132587.023 -61678.035 132810.357 -61678.035 132874.166 -61713.75 132906.071 -61749.464 132937.976 -61820.892 132937.976 -61892.321 132906.071 -61963.75 132874.166 -61999.464 132810.357 -62035.178 132587.023 -62035.178 M 133607.976 -62428.035 133225.119 -62428.035 M 133416.547 -62428.035 133416.547 -61678.035 133352.738 -61785.178 133288.928 -61856.607 133225.119 -61892.321 M 130959.88 -64978.035 130577.023 -64978.035 M 130768.452 -64978.035 130768.452 -64228.035 130704.642 -64335.178 130640.833 -64406.607 130577.023 -64442.321 M 131534.166 -64478.035 131534.166 -64978.035 M 131374.642 -64192.321 131215.119 -64728.035 131629.88 -64728.035 M 132363.69 -64192.321 131789.404 -65156.607 M 132810.357 -64585.178 132906.071 -64620.892 132937.976 -64656.607 132969.88 -64728.035 132969.88 -64835.178 132937.976 -64906.607 132906.071 -64942.321 132842.261 -64978.035 132587.023 -64978.035 132587.023 -64228.035 132810.357 -64228.035 132874.166 -64263.75 132906.071 -64299.464 132937.976 -64370.892 132937.976 -64442.321 132906.071 -64513.75 132874.166 -64549.464 132810.357 -64585.178 132587.023 -64585.178 M 133193.214 -64228.035 133607.976 -64228.035 133384.642 -64513.75 133480.357 -64513.75 133544.166 -64549.464 133576.071 -64585.178 133607.976 -64656.607 133607.976 -64835.178 133576.071 -64906.607 133544.166 -64942.321 133480.357 -64978.035 133288.928 -64978.035 133225.119 -64942.321 133193.214 -64906.607 M 130959.88 -70028.035 130577.023 -70028.035 M 130768.452 -70028.035 130768.452 -69278.035 130704.642 -69385.178 130640.833 -69456.607 130577.023 -69492.321 M 131374.642 -69278.035 131438.452 -69278.035 131502.261 -69313.75 131534.166 -69349.464 131566.071 -69420.892 131597.976 -69563.75 131597.976 -69742.321 131566.071 -69885.178 131534.166 -69956.607 131502.261 -69992.321 131438.452 -70028.035 131374.642 -70028.035 131310.833 -69992.321 131278.928 -69956.607 131247.023 -69885.178 131215.119 -69742.321 131215.119 -69563.75 131247.023 -69420.892 131278.928 -69349.464 131310.833 -69313.75 131374.642 -69278.035 M 132363.69 -69242.321 131789.404 -70206.607 M 132810.357 -69635.178 132906.071 -69670.892 132937.976 -69706.607 132969.88 -69778.035 132969.88 -69885.178 132937.976 -69956.607 132906.071 -69992.321 132842.261 -70028.035 132587.023 -70028.035 132587.023 -69278.035 132810.357 -69278.035 132874.166 -69313.75 132906.071 -69349.464 132937.976 -69420.892 132937.976 -69492.321 132906.071 -69563.75 132874.166 -69599.464 132810.357 -69635.178 132587.023 -69635.178 M 133544.166 -69278.035 133416.547 -69278.035 133352.738 -69313.75 133320.833 -69349.464 133257.023 -69456.607 133225.119 -69599.464 133225.119 -69885.178 133257.023 -69956.607 133288.928 -69992.321 133352.738 -70028.035 133480.357 -70028.035 133544.166 -69992.321 133576.071 -69956.607 133607.976 -69885.178 133607.976 -69706.607 133576.071 -69635.178 133544.166 -69599.464 133480.357 -69563.75 133352.738 -69563.75 133288.928 -69599.464 133257.023 -69635.178 133225.119 -69706.607 M 130959.88 -67528.035 130577.023 -67528.035 M 130768.452 -67528.035 130768.452 -66778.035 130704.642 -66885.178 130640.833 -66956.607 130577.023 -66992.321 M 131534.166 -66778.035 131406.547 -66778.035 131342.738 -66813.75 131310.833 -66849.464 131247.023 -66956.607 131215.119 -67099.464 131215.119 -67385.178 131247.023 -67456.607 131278.928 -67492.321 131342.738 -67528.035 131470.357 -67528.035 131534.166 -67492.321 131566.071 -67456.607 131597.976 -67385.178 131597.976 -67206.607 131566.071 -67135.178 131534.166 -67099.464 131470.357 -67063.75 131342.738 -67063.75 131278.928 -67099.464 131247.023 -67135.178 131215.119 -67206.607 M 132363.69 -66742.321 131789.404 -67706.607 M 132810.357 -67135.178 132906.071 -67170.892 132937.976 -67206.607 132969.88 -67278.035 132969.88 -67385.178 132937.976 -67456.607 132906.071 -67492.321 132842.261 -67528.035 132587.023 -67528.035 132587.023 -66778.035 132810.357 -66778.035 132874.166 -66813.75 132906.071 -66849.464 132937.976 -66920.892 132937.976 -66992.321 132906.071 -67063.75 132874.166 -67099.464 132810.357 -67135.178 132587.023 -67135.178 M 133225.119 -66849.464 133257.023 -66813.75 133320.833 -66778.035 133480.357 -66778.035 133544.166 -66813.75 133576.071 -66849.464 133607.976 -66920.892 133607.976 -66992.321 133576.071 -67099.464 133193.214 -67528.035 133607.976 -67528.035 M 140059.88 -64435.178 140283.214 -64435.178 M 140378.928 -64828.035 140059.88 -64828.035 140059.88 -64078.035 140378.928 -64078.035 M 140953.214 -64078.035 140825.595 -64078.035 140761.785 -64113.75 140729.88 -64149.464 140666.071 -64256.607 140634.166 -64399.464 140634.166 -64685.178 140666.071 -64756.607 140697.976 -64792.321 140761.785 -64828.035 140889.404 -64828.035 140953.214 -64792.321 140985.119 -64756.607 141017.023 -64685.178 141017.023 -64506.607 140985.119 -64435.178 140953.214 -64399.464 140889.404 -64363.75 140761.785 -64363.75 140697.976 -64399.464 140666.071 -64435.178 140634.166 -64506.607 M 141782.738 -64042.321 141208.452 -65006.607 M 141942.261 -64078.035 142388.928 -64078.035 142101.785 -64828.035 M 140027.976 -62278.035 140027.976 -61528.035 140187.5 -61528.035 140283.214 -61563.75 140347.023 -61635.178 140378.928 -61706.607 140410.833 -61849.464 140410.833 -61956.607 140378.928 -62099.464 140347.023 -62170.892 140283.214 -62242.321 140187.5 -62278.035 140027.976 -62278.035 M 140634.166 -61528.035 141080.833 -61528.035 140793.69 -62278.035 M 141814.642 -61492.321 141240.357 -62456.607 M 142325.119 -61528.035 142197.5 -61528.035 142133.69 -61563.75 142101.785 -61599.464 142037.976 -61706.607 142006.071 -61849.464 142006.071 -62135.178 142037.976 -62206.607 142069.88 -62242.321 142133.69 -62278.035 142261.309 -62278.035 142325.119 -62242.321 142357.023 -62206.607 142388.928 -62135.178 142388.928 -61956.607 142357.023 -61885.178 142325.119 -61849.464 142261.309 -61813.75 142133.69 -61813.75 142069.88 -61849.464 142037.976 -61885.178 142006.071 -61956.607 M 140932.023 -46513.75 140868.214 -46478.035 140772.5 -46478.035 140676.785 -46513.75 140612.976 -46585.178 140581.071 -46656.607 140549.166 -46799.464 140549.166 -46906.607 140581.071 -47049.464 140612.976 -47120.892 140676.785 -47192.321 140772.5 -47228.035 140836.309 -47228.035 140932.023 -47192.321 140963.928 -47156.607 140963.928 -46906.607 140836.309 -46906.607 M 141251.071 -47228.035 141251.071 -46478.035 141633.928 -47228.035 141633.928 -46478.035 M 141952.976 -47228.035 141952.976 -46478.035 142112.5 -46478.035 142208.214 -46513.75 142272.023 -46585.178 142303.928 -46656.607 142335.833 -46799.464 142335.833 -46906.607 142303.928 -47049.464 142272.023 -47120.892 142208.214 -47192.321 142112.5 -47228.035 141952.976 -47228.035 M 140932.023 -48963.75 140868.214 -48928.035 140772.5 -48928.035 140676.785 -48963.75 140612.976 -49035.178 140581.071 -49106.607 140549.166 -49249.464 140549.166 -49356.607 140581.071 -49499.464 140612.976 -49570.892 140676.785 -49642.321 140772.5 -49678.035 140836.309 -49678.035 140932.023 -49642.321 140963.928 -49606.607 140963.928 -49356.607 140836.309 -49356.607 M 141251.071 -49678.035 141251.071 -48928.035 141633.928 -49678.035 141633.928 -48928.035 M 141952.976 -49678.035 141952.976 -48928.035 142112.5 -48928.035 142208.214 -48963.75 142272.023 -49035.178 142303.928 -49106.607 142335.833 -49249.464 142335.833 -49356.607 142303.928 -49499.464 142272.023 -49570.892 142208.214 -49642.321 142112.5 -49678.035 141952.976 -49678.035 M 138903.69 -42128.035 138903.69 -41378.035 139063.214 -41378.035 139158.928 -41413.75 139222.738 -41485.178 139254.642 -41556.607 139286.547 -41699.464 139286.547 -41806.607 139254.642 -41949.464 139222.738 -42020.892 139158.928 -42092.321 139063.214 -42128.035 138903.69 -42128.035 M 139509.88 -41378.035 139924.642 -41378.035 139701.309 -41663.75 139797.023 -41663.75 139860.833 -41699.464 139892.738 -41735.178 139924.642 -41806.607 139924.642 -41985.178 139892.738 -42056.607 139860.833 -42092.321 139797.023 -42128.035 139605.595 -42128.035 139541.785 -42092.321 139509.88 -42056.607 M 140690.357 -41342.321 140116.071 -42306.607 M 140817.976 -41378.035 141200.833 -41378.035 M 141009.404 -42128.035 141009.404 -41378.035 M 141360.357 -41378.035 141807.023 -42128.035 M 141807.023 -41378.035 141360.357 -42128.035 M 142189.88 -41378.035 142253.69 -41378.035 142317.5 -41413.75 142349.404 -41449.464 142381.309 -41520.892 142413.214 -41663.75 142413.214 -41842.321 142381.309 -41985.178 142349.404 -42056.607 142317.5 -42092.321 142253.69 -42128.035 142189.88 -42128.035 142126.071 -42092.321 142094.166 -42056.607 142062.261 -41985.178 142030.357 -41842.321 142030.357 -41663.75 142062.261 -41520.892 142094.166 -41449.464 142126.071 -41413.75 142189.88 -41378.035 M 140027.976 -57178.035 140027.976 -56428.035 140187.5 -56428.035 140283.214 -56463.75 140347.023 -56535.178 140378.928 -56606.607 140410.833 -56749.464 140410.833 -56856.607 140378.928 -56999.464 140347.023 -57070.892 140283.214 -57142.321 140187.5 -57178.035 140027.976 -57178.035 M 140985.119 -56678.035 140985.119 -57178.035 M 140825.595 -56392.321 140666.071 -56928.035 141080.833 -56928.035 M 141814.642 -56392.321 141240.357 -57356.607 M 142325.119 -56678.035 142325.119 -57178.035 M 142165.595 -56392.321 142006.071 -56928.035 142420.833 -56928.035 M 137453.928 -52142.321 137549.642 -52178.035 137709.166 -52178.035 137772.976 -52142.321 137804.88 -52106.607 137836.785 -52035.178 137836.785 -51963.75 137804.88 -51892.321 137772.976 -51856.607 137709.166 -51820.892 137581.547 -51785.178 137517.738 -51749.464 137485.833 -51713.75 137453.928 -51642.321 137453.928 -51570.892 137485.833 -51499.464 137517.738 -51463.75 137581.547 -51428.035 137741.071 -51428.035 137836.785 -51463.75 M 138123.928 -52178.035 138123.928 -51428.035 138283.452 -51428.035 138379.166 -51463.75 138442.976 -51535.178 138474.88 -51606.607 138506.785 -51749.464 138506.785 -51856.607 138474.88 -51999.464 138442.976 -52070.892 138379.166 -52142.321 138283.452 -52178.035 138123.928 -52178.035 M 138762.023 -51963.75 139081.071 -51963.75 M 138698.214 -52178.035 138921.547 -51428.035 139144.88 -52178.035 M 139846.785 -51392.321 139272.5 -52356.607 M 140070.119 -52178.035 140070.119 -51428.035 140229.642 -51428.035 140325.357 -51463.75 140389.166 -51535.178 140421.071 -51606.607 140452.976 -51749.464 140452.976 -51856.607 140421.071 -51999.464 140389.166 -52070.892 140325.357 -52142.321 140229.642 -52178.035 140070.119 -52178.035 M 141091.071 -52178.035 140708.214 -52178.035 M 140899.642 -52178.035 140899.642 -51428.035 140835.833 -51535.178 140772.023 -51606.607 140708.214 -51642.321 M 141856.785 -51392.321 141282.5 -52356.607 M 142048.214 -51499.464 142080.119 -51463.75 142143.928 -51428.035 142303.452 -51428.035 142367.261 -51463.75 142399.166 -51499.464 142431.071 -51570.892 142431.071 -51642.321 142399.166 -51749.464 142016.309 -52178.035 142431.071 -52178.035 M 137469.88 -54642.321 137565.595 -54678.035 137725.119 -54678.035 137788.928 -54642.321 137820.833 -54606.607 137852.738 -54535.178 137852.738 -54463.75 137820.833 -54392.321 137788.928 -54356.607 137725.119 -54320.892 137597.5 -54285.178 137533.69 -54249.464 137501.785 -54213.75 137469.88 -54142.321 137469.88 -54070.892 137501.785 -53999.464 137533.69 -53963.75 137597.5 -53928.035 137757.023 -53928.035 137852.738 -53963.75 M 138522.738 -54606.607 138490.833 -54642.321 138395.119 -54678.035 138331.309 -54678.035 138235.595 -54642.321 138171.785 -54570.892 138139.88 -54499.464 138107.976 -54356.607 138107.976 -54249.464 138139.88 -54106.607 138171.785 -54035.178 138235.595 -53963.75 138331.309 -53928.035 138395.119 -53928.035 138490.833 -53963.75 138522.738 -53999.464 M 139128.928 -54678.035 138809.88 -54678.035 138809.88 -53928.035 M 139830.833 -53892.321 139256.547 -54856.607 M 140054.166 -54678.035 140054.166 -53928.035 140213.69 -53928.035 140309.404 -53963.75 140373.214 -54035.178 140405.119 -54106.607 140437.023 -54249.464 140437.023 -54356.607 140405.119 -54499.464 140373.214 -54570.892 140309.404 -54642.321 140213.69 -54678.035 140054.166 -54678.035 M 140851.785 -53928.035 140915.595 -53928.035 140979.404 -53963.75 141011.309 -53999.464 141043.214 -54070.892 141075.119 -54213.75 141075.119 -54392.321 141043.214 -54535.178 141011.309 -54606.607 140979.404 -54642.321 140915.595 -54678.035 140851.785 -54678.035 140787.976 -54642.321 140756.071 -54606.607 140724.166 -54535.178 140692.261 -54392.321 140692.261 -54213.75 140724.166 -54070.892 140756.071 -53999.464 140787.976 -53963.75 140851.785 -53928.035 M 141840.833 -53892.321 141266.547 -54856.607 M 142000.357 -53928.035 142415.119 -53928.035 142191.785 -54213.75 142287.5 -54213.75 142351.309 -54249.464 142383.214 -54285.178 142415.119 -54356.607 142415.119 -54535.178 142383.214 -54606.607 142351.309 -54642.321 142287.5 -54678.035 142096.071 -54678.035 142032.261 -54642.321 142000.357 -54606.607 M 140410.833 -59656.607 140378.928 -59692.321 140283.214 -59728.035 140219.404 -59728.035 140123.69 -59692.321 140059.88 -59620.892 140027.976 -59549.464 139996.071 -59406.607 139996.071 -59299.464 140027.976 -59156.607 140059.88 -59085.178 140123.69 -59013.75 140219.404 -58978.035 140283.214 -58978.035 140378.928 -59013.75 140410.833 -59049.464 M 140985.119 -58978.035 140857.5 -58978.035 140793.69 -59013.75 140761.785 -59049.464 140697.976 -59156.607 140666.071 -59299.464 140666.071 -59585.178 140697.976 -59656.607 140729.88 -59692.321 140793.69 -59728.035 140921.309 -59728.035 140985.119 -59692.321 141017.023 -59656.607 141048.928 -59585.178 141048.928 -59406.607 141017.023 -59335.178 140985.119 -59299.464 140921.309 -59263.75 140793.69 -59263.75 140729.88 -59299.464 140697.976 -59335.178 140666.071 -59406.607 M 141814.642 -58942.321 141240.357 -59906.607 M 142357.023 -58978.035 142037.976 -58978.035 142006.071 -59335.178 142037.976 -59299.464 142101.785 -59263.75 142261.309 -59263.75 142325.119 -59299.464 142357.023 -59335.178 142388.928 -59406.607 142388.928 -59585.178 142357.023 -59656.607 142325.119 -59692.321 142261.309 -59728.035 142101.785 -59728.035 142037.976 -59692.321 142006.071 -59656.607 M 140251.309 -69485.178 140347.023 -69520.892 140378.928 -69556.607 140410.833 -69628.035 140410.833 -69735.178 140378.928 -69806.607 140347.023 -69842.321 140283.214 -69878.035 140027.976 -69878.035 140027.976 -69128.035 140251.309 -69128.035 140315.119 -69163.75 140347.023 -69199.464 140378.928 -69270.892 140378.928 -69342.321 140347.023 -69413.75 140315.119 -69449.464 140251.309 -69485.178 140027.976 -69485.178 M 141017.023 -69128.035 140697.976 -69128.035 140666.071 -69485.178 140697.976 -69449.464 140761.785 -69413.75 140921.309 -69413.75 140985.119 -69449.464 141017.023 -69485.178 141048.928 -69556.607 141048.928 -69735.178 141017.023 -69806.607 140985.119 -69842.321 140921.309 -69878.035 140761.785 -69878.035 140697.976 -69842.321 140666.071 -69806.607 M 141814.642 -69092.321 141240.357 -70056.607 M 142069.88 -69878.035 142197.5 -69878.035 142261.309 -69842.321 142293.214 -69806.607 142357.023 -69699.464 142388.928 -69556.607 142388.928 -69270.892 142357.023 -69199.464 142325.119 -69163.75 142261.309 -69128.035 142133.69 -69128.035 142069.88 -69163.75 142037.976 -69199.464 142006.071 -69270.892 142006.071 -69449.464 142037.976 -69520.892 142069.88 -69556.607 142133.69 -69592.321 142261.309 -69592.321 142325.119 -69556.607 142357.023 -69520.892 142388.928 -69449.464 M 138823.928 -44678.035 138823.928 -43928.035 138983.452 -43928.035 139079.166 -43963.75 139142.976 -44035.178 139174.88 -44106.607 139206.785 -44249.464 139206.785 -44356.607 139174.88 -44499.464 139142.976 -44570.892 139079.166 -44642.321 138983.452 -44678.035 138823.928 -44678.035 M 139462.023 -43999.464 139493.928 -43963.75 139557.738 -43928.035 139717.261 -43928.035 139781.071 -43963.75 139812.976 -43999.464 139844.88 -44070.892 139844.88 -44142.321 139812.976 -44249.464 139430.119 -44678.035 139844.88 -44678.035 M 140610.595 -43892.321 140036.309 -44856.607 M 141216.785 -44678.035 140993.452 -44320.892 M 140833.928 -44678.035 140833.928 -43928.035 141089.166 -43928.035 141152.976 -43963.75 141184.88 -43999.464 141216.785 -44070.892 141216.785 -44178.035 141184.88 -44249.464 141152.976 -44285.178 141089.166 -44320.892 140833.928 -44320.892 M 141440.119 -43928.035 141886.785 -44678.035 M 141886.785 -43928.035 141440.119 -44678.035 M 142492.976 -44678.035 142110.119 -44678.035 M 142301.547 -44678.035 142301.547 -43928.035 142237.738 -44035.178 142173.928 -44106.607 142110.119 -44142.321 M 140251.309 -66985.178 140347.023 -67020.892 140378.928 -67056.607 140410.833 -67128.035 140410.833 -67235.178 140378.928 -67306.607 140347.023 -67342.321 140283.214 -67378.035 140027.976 -67378.035 140027.976 -66628.035 140251.309 -66628.035 140315.119 -66663.75 140347.023 -66699.464 140378.928 -66770.892 140378.928 -66842.321 140347.023 -66913.75 140315.119 -66949.464 140251.309 -66985.178 140027.976 -66985.178 M 140985.119 -66878.035 140985.119 -67378.035 M 140825.595 -66592.321 140666.071 -67128.035 141080.833 -67128.035 M 141814.642 -66592.321 141240.357 -67556.607 M 142133.69 -66949.464 142069.88 -66913.75 142037.976 -66878.035 142006.071 -66806.607 142006.071 -66770.892 142037.976 -66699.464 142069.88 -66663.75 142133.69 -66628.035 142261.309 -66628.035 142325.119 -66663.75 142357.023 -66699.464 142388.928 -66770.892 142388.928 -66806.607 142357.023 -66878.035 142325.119 -66913.75 142261.309 -66949.464 142133.69 -66949.464 142069.88 -66985.178 142037.976 -67020.892 142006.071 -67092.321 142006.071 -67235.178 142037.976 -67306.607 142069.88 -67342.321 142133.69 -67378.035 142261.309 -67378.035 142325.119 -67342.321 142357.023 -67306.607 142388.928 -67235.178 142388.928 -67092.321 142357.023 -67020.892 142325.119 -66985.178 142261.309 -66949.464" fill="none" stroke-width="125"/><path d="M 135491.071 -36878.035 135491.071 -37485.178 135526.785 -37556.607 135562.5 -37592.321 135633.928 -37628.035 135776.785 -37628.035 135848.214 -37592.321 135883.928 -37556.607 135919.642 -37485.178 135919.642 -36878.035 M 136241.071 -37592.321 136348.214 -37628.035 136526.785 -37628.035 136598.214 -37592.321 136633.928 -37556.607 136669.642 -37485.178 136669.642 -37413.75 136633.928 -37342.321 136598.214 -37306.607 136526.785 -37270.892 136383.928 -37235.178 136312.5 -37199.464 136276.785 -37163.75 136241.071 -37092.321 136241.071 -37020.892 136276.785 -36949.464 136312.5 -36913.75 136383.928 -36878.035 136562.5 -36878.035 136669.642 -36913.75 M 137241.071 -37235.178 137348.214 -37270.892 137383.928 -37306.607 137419.642 -37378.035 137419.642 -37485.178 137383.928 -37556.607 137348.214 -37592.321 137276.785 -37628.035 136991.071 -37628.035 136991.071 -36878.035 137241.071 -36878.035 137312.5 -36913.75 137348.214 -36949.464 137383.928 -37020.892 137383.928 -37092.321 137348.214 -37163.75 137312.5 -37199.464 137241.071 -37235.178 136991.071 -37235.178 M 135491.071 -36878.035 135491.071 -37485.178 135526.785 -37556.607 135562.5 -37592.321 135633.928 -37628.035 135776.785 -37628.035 135848.214 -37592.321 135883.928 -37556.607 135919.642 -37485.178 135919.642 -36878.035 M 136241.071 -37592.321 136348.214 -37628.035 136526.785 -37628.035 136598.214 -37592.321 136633.928 -37556.607 136669.642 -37485.178 136669.642 -37413.75 136633.928 -37342.321 136598.214 -37306.607 136526.785 -37270.892 136383.928 -37235.178 136312.5 -37199.464 136276.785 -37163.75 136241.071 -37092.321 136241.071 -37020.892 136276.785 -36949.464 136312.5 -36913.75 136383.928 -36878.035 136562.5 -36878.035 136669.642 -36913.75 M 137241.071 -37235.178 137348.214 -37270.892 137383.928 -37306.607 137419.642 -37378.035 137419.642 -37485.178 137383.928 -37556.607 137348.214 -37592.321 137276.785 -37628.035 136991.071 -37628.035 136991.071 -36878.035 137241.071 -36878.035 137312.5 -36913.75 137348.214 -36949.464 137383.928 -37020.892 137383.928 -37092.321 137348.214 -37163.75 137312.5 -37199.464 137241.071 -37235.178 136991.071 -37235.178" fill="none" stroke-width="120"/><path d="M 135035.119 -87647.38 134701.785 -87171.19 M 134463.69 -87647.38 134463.69 -86647.38 134844.642 -86647.38 134939.88 -86695 134987.5 -86742.619 135035.119 -86837.857 135035.119 -86980.714 134987.5 -87075.952 134939.88 -87123.571 134844.642 -87171.19 134463.69 -87171.19 M 135463.69 -87123.571 135797.023 -87123.571 M 135939.88 -87647.38 135463.69 -87647.38 135463.69 -86647.38 135939.88 -86647.38 M 136320.833 -87599.761 136463.69 -87647.38 136701.785 -87647.38 136797.023 -87599.761 136844.642 -87552.142 136892.261 -87456.904 136892.261 -87361.666 136844.642 -87266.428 136797.023 -87218.809 136701.785 -87171.19 136511.309 -87123.571 136416.071 -87075.952 136368.452 -87028.333 136320.833 -86933.095 136320.833 -86837.857 136368.452 -86742.619 136416.071 -86695 136511.309 -86647.38 136749.404 -86647.38 136892.261 -86695 M 137320.833 -87123.571 137654.166 -87123.571 M 137797.023 -87647.38 137320.833 -87647.38 137320.833 -86647.38 137797.023 -86647.38 M 138082.738 -86647.38 138654.166 -86647.38 M 138368.452 -87647.38 138368.452 -86647.38" fill="none" stroke-width="150"/></g><g id="Z3Avcl27c-ouz1Ey9TBM_top_soldermask"><use xlink:href="#P1kOfRhPEJ1fO7TJEy2L_pad-10" x="17425" y="-51820"/><use xlink:href="#P1kOfRhPEJ1fO7TJEy2L_pad-10" x="12425" y="-49620"/><use xlink:href="#P1kOfRhPEJ1fO7TJEy2L_pad-10" x="79337.5" y="-70870"/><use xlink:href="#P1kOfRhPEJ1fO7TJEy2L_pad-10" x="74337.5" y="-68670"/><use xlink:href="#P1kOfRhPEJ1fO7TJEy2L_pad-11" x="88862.5" y="-55445"/><use xlink:href="#P1kOfRhPEJ1fO7TJEy2L_pad-11" x="7106.25" y="-40363.75"/><use xlink:href="#P1kOfRhPEJ1fO7TJEy2L_pad-11" x="7106.25" y="-108626.25"/><use xlink:href="#P1kOfRhPEJ1fO7TJEy2L_pad-11" x="136487.5" y="-108626.25"/><use xlink:href="#P1kOfRhPEJ1fO7TJEy2L_pad-11" x="265868.75" y="-108626.25"/><use xlink:href="#P1kOfRhPEJ1fO7TJEy2L_pad-11" x="265868.75" y="-40363.75"/><use xlink:href="#P1kOfRhPEJ1fO7TJEy2L_pad-11" x="184112.5" y="-55572"/><use xlink:href="#P1kOfRhPEJ1fO7TJEy2L_pad-12" x="142837.5" y="-81638.75"/><use xlink:href="#P1kOfRhPEJ1fO7TJEy2L_pad-12" x="130137.5" y="-81638.75"/><use xlink:href="#P1kOfRhPEJ1fO7TJEy2L_pad-10" x="22187.5" y="-108970"/><use xlink:href="#P1kOfRhPEJ1fO7TJEy2L_pad-10" x="17187.5" y="-106770"/><use xlink:href="#P1kOfRhPEJ1fO7TJEy2L_pad-10" x="250787.5" y="-108970"/><use xlink:href="#P1kOfRhPEJ1fO7TJEy2L_pad-10" x="245787.5" y="-106770"/><use xlink:href="#P1kOfRhPEJ1fO7TJEy2L_pad-10" x="231737.5" y="-108970"/><use xlink:href="#P1kOfRhPEJ1fO7TJEy2L_pad-10" x="226737.5" y="-106770"/><use xlink:href="#P1kOfRhPEJ1fO7TJEy2L_pad-10" x="212687.5" y="-108970"/><use xlink:href="#P1kOfRhPEJ1fO7TJEy2L_pad-10" x="207687.5" y="-106770"/><use xlink:href="#P1kOfRhPEJ1fO7TJEy2L_pad-10" x="122200" y="-108970"/><use xlink:href="#P1kOfRhPEJ1fO7TJEy2L_pad-10" x="117200" y="-106770"/><use xlink:href="#P1kOfRhPEJ1fO7TJEy2L_pad-10" x="98387.5" y="-108970"/><use xlink:href="#P1kOfRhPEJ1fO7TJEy2L_pad-10" x="93387.5" y="-106770"/><use xlink:href="#P1kOfRhPEJ1fO7TJEy2L_pad-10" x="79337.5" y="-108970"/><use xlink:href="#P1kOfRhPEJ1fO7TJEy2L_pad-10" x="74337.5" y="-106770"/><use xlink:href="#P1kOfRhPEJ1fO7TJEy2L_pad-10" x="255550" y="-89920"/><use xlink:href="#P1kOfRhPEJ1fO7TJEy2L_pad-10" x="250550" y="-87720"/><use xlink:href="#P1kOfRhPEJ1fO7TJEy2L_pad-10" x="231737.5" y="-89920"/><use xlink:href="#P1kOfRhPEJ1fO7TJEy2L_pad-10" x="226737.5" y="-87720"/><use xlink:href="#P1kOfRhPEJ1fO7TJEy2L_pad-10" x="212687.5" y="-89920"/><use xlink:href="#P1kOfRhPEJ1fO7TJEy2L_pad-10" x="207687.5" y="-87720"/><use xlink:href="#P1kOfRhPEJ1fO7TJEy2L_pad-10" x="193637.5" y="-89920"/><use xlink:href="#P1kOfRhPEJ1fO7TJEy2L_pad-10" x="188637.5" y="-87720"/><use xlink:href="#P1kOfRhPEJ1fO7TJEy2L_pad-10" x="174587.5" y="-89920"/><use xlink:href="#P1kOfRhPEJ1fO7TJEy2L_pad-10" x="169587.5" y="-87720"/><use xlink:href="#P1kOfRhPEJ1fO7TJEy2L_pad-10" x="155537.5" y="-89920"/><use xlink:href="#P1kOfRhPEJ1fO7TJEy2L_pad-10" x="150537.5" y="-87720"/><use xlink:href="#P1kOfRhPEJ1fO7TJEy2L_pad-10" x="117437.5" y="-89920"/><use xlink:href="#P1kOfRhPEJ1fO7TJEy2L_pad-10" x="112437.5" y="-87720"/><use xlink:href="#P1kOfRhPEJ1fO7TJEy2L_pad-10" x="98387.5" y="-89920"/><use xlink:href="#P1kOfRhPEJ1fO7TJEy2L_pad-10" x="93387.5" y="-87720"/><use xlink:href="#P1kOfRhPEJ1fO7TJEy2L_pad-10" x="79337.5" y="-89920"/><use xlink:href="#P1kOfRhPEJ1fO7TJEy2L_pad-10" x="74337.5" y="-87720"/><use xlink:href="#P1kOfRhPEJ1fO7TJEy2L_pad-10" x="60287.5" y="-89920"/><use xlink:href="#P1kOfRhPEJ1fO7TJEy2L_pad-10" x="55287.5" y="-87720"/><use xlink:href="#P1kOfRhPEJ1fO7TJEy2L_pad-10" x="41237.5" y="-89920"/><use xlink:href="#P1kOfRhPEJ1fO7TJEy2L_pad-10" x="36237.5" y="-87720"/><use xlink:href="#P1kOfRhPEJ1fO7TJEy2L_pad-10" x="17425" y="-89920"/><use xlink:href="#P1kOfRhPEJ1fO7TJEy2L_pad-10" x="12425" y="-87720"/><use xlink:href="#P1kOfRhPEJ1fO7TJEy2L_pad-10" x="255550" y="-70870"/><use xlink:href="#P1kOfRhPEJ1fO7TJEy2L_pad-10" x="250550" y="-68670"/><use xlink:href="#P1kOfRhPEJ1fO7TJEy2L_pad-10" x="231737.5" y="-70870"/><use xlink:href="#P1kOfRhPEJ1fO7TJEy2L_pad-10" x="226737.5" y="-68670"/><use xlink:href="#P1kOfRhPEJ1fO7TJEy2L_pad-10" x="212687.5" y="-70870"/><use xlink:href="#P1kOfRhPEJ1fO7TJEy2L_pad-10" x="207687.5" y="-68670"/><use xlink:href="#P1kOfRhPEJ1fO7TJEy2L_pad-10" x="193637.5" y="-70870"/><use xlink:href="#P1kOfRhPEJ1fO7TJEy2L_pad-10" x="188637.5" y="-68670"/><use xlink:href="#P1kOfRhPEJ1fO7TJEy2L_pad-10" x="174587.5" y="-70870"/><use xlink:href="#P1kOfRhPEJ1fO7TJEy2L_pad-10" x="169587.5" y="-68670"/><use xlink:href="#P1kOfRhPEJ1fO7TJEy2L_pad-10" x="155537.5" y="-70870"/><use xlink:href="#P1kOfRhPEJ1fO7TJEy2L_pad-10" x="150537.5" y="-68670"/><use xlink:href="#P1kOfRhPEJ1fO7TJEy2L_pad-10" x="117437.5" y="-70870"/><use xlink:href="#P1kOfRhPEJ1fO7TJEy2L_pad-10" x="112437.5" y="-68670"/><use xlink:href="#P1kOfRhPEJ1fO7TJEy2L_pad-10" x="98387.5" y="-70870"/><use xlink:href="#P1kOfRhPEJ1fO7TJEy2L_pad-10" x="93387.5" y="-68670"/><use xlink:href="#P1kOfRhPEJ1fO7TJEy2L_pad-10" x="60287.5" y="-70870"/><use xlink:href="#P1kOfRhPEJ1fO7TJEy2L_pad-10" x="55287.5" y="-68670"/><use xlink:href="#P1kOfRhPEJ1fO7TJEy2L_pad-10" x="41237.5" y="-70870"/><use xlink:href="#P1kOfRhPEJ1fO7TJEy2L_pad-10" x="36237.5" y="-68670"/><use xlink:href="#P1kOfRhPEJ1fO7TJEy2L_pad-10" x="17425" y="-70870"/><use xlink:href="#P1kOfRhPEJ1fO7TJEy2L_pad-10" x="12425" y="-68670"/><use xlink:href="#P1kOfRhPEJ1fO7TJEy2L_pad-10" x="255550" y="-51820"/><use xlink:href="#P1kOfRhPEJ1fO7TJEy2L_pad-10" x="250550" y="-49620"/><use xlink:href="#P1kOfRhPEJ1fO7TJEy2L_pad-10" x="231737.5" y="-51820"/><use xlink:href="#P1kOfRhPEJ1fO7TJEy2L_pad-10" x="226737.5" y="-49620"/><use xlink:href="#P1kOfRhPEJ1fO7TJEy2L_pad-10" x="212687.5" y="-51820"/><use xlink:href="#P1kOfRhPEJ1fO7TJEy2L_pad-10" x="207687.5" y="-49620"/><use xlink:href="#P1kOfRhPEJ1fO7TJEy2L_pad-10" x="193637.5" y="-51820"/><use xlink:href="#P1kOfRhPEJ1fO7TJEy2L_pad-10" x="188637.5" y="-49620"/><use xlink:href="#P1kOfRhPEJ1fO7TJEy2L_pad-10" x="174587.5" y="-51820"/><use xlink:href="#P1kOfRhPEJ1fO7TJEy2L_pad-10" x="169587.5" y="-49620"/><use xlink:href="#P1kOfRhPEJ1fO7TJEy2L_pad-10" x="155537.5" y="-51820"/><use xlink:href="#P1kOfRhPEJ1fO7TJEy2L_pad-10" x="150537.5" y="-49620"/><use xlink:href="#P1kOfRhPEJ1fO7TJEy2L_pad-10" x="117437.5" y="-51820"/><use xlink:href="#P1kOfRhPEJ1fO7TJEy2L_pad-10" x="112437.5" y="-49620"/><use xlink:href="#P1kOfRhPEJ1fO7TJEy2L_pad-10" x="98387.5" y="-51820"/><use xlink:href="#P1kOfRhPEJ1fO7TJEy2L_pad-10" x="93387.5" y="-49620"/><use xlink:href="#P1kOfRhPEJ1fO7TJEy2L_pad-10" x="79337.5" y="-51820"/><use xlink:href="#P1kOfRhPEJ1fO7TJEy2L_pad-10" x="74337.5" y="-49620"/><use xlink:href="#P1kOfRhPEJ1fO7TJEy2L_pad-10" x="60287.5" y="-51820"/><use xlink:href="#P1kOfRhPEJ1fO7TJEy2L_pad-10" x="55287.5" y="-49620"/><use xlink:href="#P1kOfRhPEJ1fO7TJEy2L_pad-10" x="41237.5" y="-51820"/><use xlink:href="#P1kOfRhPEJ1fO7TJEy2L_pad-10" x="36237.5" y="-49620"/><use xlink:href="#P1kOfRhPEJ1fO7TJEy2L_pad-10" x="193637.5" y="-108970"/><use xlink:href="#P1kOfRhPEJ1fO7TJEy2L_pad-10" x="188637.5" y="-106770"/><use xlink:href="#P1kOfRhPEJ1fO7TJEy2L_pad-10" x="174587.5" y="-108970"/><use xlink:href="#P1kOfRhPEJ1fO7TJEy2L_pad-10" x="169587.5" y="-106770"/><use xlink:href="#P1kOfRhPEJ1fO7TJEy2L_pad-10" x="150775" y="-108970"/><use xlink:href="#P1kOfRhPEJ1fO7TJEy2L_pad-10" x="145775" y="-106770"/><use xlink:href="#P1kOfRhPEJ1fO7TJEy2L_pad-10" x="60287.5" y="-108970"/><use xlink:href="#P1kOfRhPEJ1fO7TJEy2L_pad-10" x="55287.5" y="-106770"/><use xlink:href="#P1kOfRhPEJ1fO7TJEy2L_pad-10" x="41237.5" y="-108970"/><use xlink:href="#P1kOfRhPEJ1fO7TJEy2L_pad-10" x="36237.5" y="-106770"/></g><g id="Z3Avcl27c-ouz1Ey9TBM_top_drill1" transform="scale(25.4,25.4)"><use xlink:href="#JLdC2gkJjQlgD1BvdqE9_pad-1" x="1293.5" y="-4062.9"/><use xlink:href="#JLdC2gkJjQlgD1BvdqE9_pad-1" x="1298.5" y="-2107.9"/><use xlink:href="#JLdC2gkJjQlgD1BvdqE9_pad-1" x="1298.5" y="-2562.9"/><use xlink:href="#JLdC2gkJjQlgD1BvdqE9_pad-1" x="1298.5" y="-2852.9"/><use xlink:href="#JLdC2gkJjQlgD1BvdqE9_pad-1" x="1298.5" y="-3312.9"/><use xlink:href="#JLdC2gkJjQlgD1BvdqE9_pad-1" x="1298.5" y="-3592.9"/><use xlink:href="#JLdC2gkJjQlgD1BvdqE9_pad-1" x="1373.5" y="-2992.6"/><use xlink:href="#JLdC2gkJjQlgD1BvdqE9_pad-1" x="2043.5" y="-2107.9"/><use xlink:href="#JLdC2gkJjQlgD1BvdqE9_pad-1" x="2043.5" y="-2557.9"/><use xlink:href="#JLdC2gkJjQlgD1BvdqE9_pad-1" x="2043.5" y="-3312.9"/><use xlink:href="#JLdC2gkJjQlgD1BvdqE9_pad-1" x="2048.5" y="-2852.9"/><use xlink:href="#JLdC2gkJjQlgD1BvdqE9_pad-1" x="2048.5" y="-3597.9"/><use xlink:href="#JLdC2gkJjQlgD1BvdqE9_pad-1" x="2048.5" y="-4062.9"/><use xlink:href="#JLdC2gkJjQlgD1BvdqE9_pad-1" x="2128.5" y="-3757.9"/><use xlink:href="#JLdC2gkJjQlgD1BvdqE9_pad-1" x="2793.5" y="-3312.9"/><use xlink:href="#JLdC2gkJjQlgD1BvdqE9_pad-1" x="2798.5" y="-2102.9"/><use xlink:href="#JLdC2gkJjQlgD1BvdqE9_pad-1" x="2798.5" y="-2857.9"/><use xlink:href="#JLdC2gkJjQlgD1BvdqE9_pad-1" x="2798.5" y="-3602.9"/><use xlink:href="#JLdC2gkJjQlgD1BvdqE9_pad-1" x="2798.5" y="-4062.9"/><use xlink:href="#JLdC2gkJjQlgD1BvdqE9_pad-1" x="2803.5" y="-2562.9"/><use xlink:href="#JLdC2gkJjQlgD1BvdqE9_pad-1" x="3547.5" y="-2035.9"/><use xlink:href="#JLdC2gkJjQlgD1BvdqE9_pad-1" x="3548.5" y="-1807.9"/><use xlink:href="#JLdC2gkJjQlgD1BvdqE9_pad-1" x="3548.5" y="-2402.9"/><use xlink:href="#JLdC2gkJjQlgD1BvdqE9_pad-1" x="3548.5" y="-2852.9"/><use xlink:href="#JLdC2gkJjQlgD1BvdqE9_pad-1" x="3548.5" y="-3307.9"/><use xlink:href="#JLdC2gkJjQlgD1BvdqE9_pad-1" x="3548.5" y="-3602.9"/><use xlink:href="#JLdC2gkJjQlgD1BvdqE9_pad-1" x="3548.5" y="-4067.9"/><use xlink:href="#JLdC2gkJjQlgD1BvdqE9_pad-1" x="4293.5" y="-3592.9"/><use xlink:href="#JLdC2gkJjQlgD1BvdqE9_pad-1" x="4298.5" y="-1807.9"/><use xlink:href="#JLdC2gkJjQlgD1BvdqE9_pad-1" x="4298.5" y="-2102.9"/><use xlink:href="#JLdC2gkJjQlgD1BvdqE9_pad-1" x="4298.5" y="-2557.9"/><use xlink:href="#JLdC2gkJjQlgD1BvdqE9_pad-1" x="4298.5" y="-2852.9"/><use xlink:href="#JLdC2gkJjQlgD1BvdqE9_pad-1" x="4303.5" y="-3307.9"/><use xlink:href="#JLdC2gkJjQlgD1BvdqE9_pad-1" x="4373.5" y="-3727.9"/><use xlink:href="#JLdC2gkJjQlgD1BvdqE9_pad-1" x="4378.5" y="-2967.9"/><use xlink:href="#JLdC2gkJjQlgD1BvdqE9_pad-1" x="4428.5" y="-2992.9"/><use xlink:href="#JLdC2gkJjQlgD1BvdqE9_pad-1" x="4473.5" y="-3752.6"/><use xlink:href="#JLdC2gkJjQlgD1BvdqE9_pad-1" x="4483.5" y="-4052.9"/><use xlink:href="#JLdC2gkJjQlgD1BvdqE9_pad-1" x="4971.1" y="-2862.9"/><use xlink:href="#JLdC2gkJjQlgD1BvdqE9_pad-1" x="4998.5" y="-2902.9"/><use xlink:href="#JLdC2gkJjQlgD1BvdqE9_pad-1" x="5073.5" y="-3602.9"/><use xlink:href="#JLdC2gkJjQlgD1BvdqE9_pad-1" x="5143.5" y="-3602.9"/><use xlink:href="#JLdC2gkJjQlgD1BvdqE9_pad-1" x="5498.5" y="-2952.9"/><use xlink:href="#JLdC2gkJjQlgD1BvdqE9_pad-1" x="5543.5" y="-2987.9"/><use xlink:href="#JLdC2gkJjQlgD1BvdqE9_pad-1" x="5608.5" y="-4042.9"/><use xlink:href="#JLdC2gkJjQlgD1BvdqE9_pad-1" x="5798.5" y="-2177.9"/><use xlink:href="#JLdC2gkJjQlgD1BvdqE9_pad-1" x="5798.5" y="-2847.9"/><use xlink:href="#JLdC2gkJjQlgD1BvdqE9_pad-1" x="5798.5" y="-3307.9"/><use xlink:href="#JLdC2gkJjQlgD1BvdqE9_pad-1" x="5798.5" y="-3592.9"/><use xlink:href="#JLdC2gkJjQlgD1BvdqE9_pad-1" x="5803.5" y="-2557.9"/><use xlink:href="#JLdC2gkJjQlgD1BvdqE9_pad-1" x="6288.5" y="-1882.9"/><use xlink:href="#JLdC2gkJjQlgD1BvdqE9_pad-1" x="6338.5" y="-2177.9"/><use xlink:href="#JLdC2gkJjQlgD1BvdqE9_pad-1" x="6373.5" y="-2212.9"/><use xlink:href="#JLdC2gkJjQlgD1BvdqE9_pad-1" x="6438.5" y="-2032.9"/><use xlink:href="#JLdC2gkJjQlgD1BvdqE9_pad-1" x="6493.5" y="-2217.9"/><use xlink:href="#JLdC2gkJjQlgD1BvdqE9_pad-1" x="6548.5" y="-2092.9"/><use xlink:href="#JLdC2gkJjQlgD1BvdqE9_pad-1" x="6548.5" y="-2542.9"/><use xlink:href="#JLdC2gkJjQlgD1BvdqE9_pad-1" x="6548.5" y="-2842.9"/><use xlink:href="#JLdC2gkJjQlgD1BvdqE9_pad-1" x="6548.5" y="-3307.9"/><use xlink:href="#JLdC2gkJjQlgD1BvdqE9_pad-1" x="6548.5" y="-3607.9"/><use xlink:href="#JLdC2gkJjQlgD1BvdqE9_pad-1" x="6548.5" y="-4052.9"/><use xlink:href="#JLdC2gkJjQlgD1BvdqE9_pad-1" x="7298.5" y="-2547.9"/><use xlink:href="#JLdC2gkJjQlgD1BvdqE9_pad-1" x="7298.5" y="-2842.9"/><use xlink:href="#JLdC2gkJjQlgD1BvdqE9_pad-1" x="7298.5" y="-3307.9"/><use xlink:href="#JLdC2gkJjQlgD1BvdqE9_pad-1" x="7298.5" y="-3612.9"/><use xlink:href="#JLdC2gkJjQlgD1BvdqE9_pad-1" x="7298.5" y="-4052.9"/><use xlink:href="#JLdC2gkJjQlgD1BvdqE9_pad-1" x="7373.5" y="-2111.9"/><use xlink:href="#JLdC2gkJjQlgD1BvdqE9_pad-1" x="8048.5" y="-2097.9"/><use xlink:href="#JLdC2gkJjQlgD1BvdqE9_pad-1" x="8048.5" y="-2547.9"/><use xlink:href="#JLdC2gkJjQlgD1BvdqE9_pad-1" x="8048.5" y="-2837.9"/><use xlink:href="#JLdC2gkJjQlgD1BvdqE9_pad-1" x="8048.5" y="-3302.9"/><use xlink:href="#JLdC2gkJjQlgD1BvdqE9_pad-1" x="8048.5" y="-3607.9"/><use xlink:href="#JLdC2gkJjQlgD1BvdqE9_pad-1" x="8048.5" y="-4057.9"/><use xlink:href="#JLdC2gkJjQlgD1BvdqE9_pad-1" x="8793.5" y="-3602.9"/><use xlink:href="#JLdC2gkJjQlgD1BvdqE9_pad-1" x="8793.5" y="-4057.9"/><use xlink:href="#JLdC2gkJjQlgD1BvdqE9_pad-1" x="8798.5" y="-2097.9"/><use xlink:href="#JLdC2gkJjQlgD1BvdqE9_pad-1" x="8798.5" y="-2547.9"/><use xlink:href="#JLdC2gkJjQlgD1BvdqE9_pad-1" x="8798.5" y="-2837.9"/><use xlink:href="#JLdC2gkJjQlgD1BvdqE9_pad-1" x="8798.5" y="-3302.9"/><use xlink:href="#JLdC2gkJjQlgD1BvdqE9_pad-1" x="9543.5" y="-4062.9"/><use xlink:href="#JLdC2gkJjQlgD1BvdqE9_pad-1" x="9733.5" y="-2097.9"/><use xlink:href="#JLdC2gkJjQlgD1BvdqE9_pad-1" x="9733.5" y="-2552.9"/><use xlink:href="#JLdC2gkJjQlgD1BvdqE9_pad-1" x="9733.5" y="-2837.9"/><use xlink:href="#JLdC2gkJjQlgD1BvdqE9_pad-1" x="9733.5" y="-3307.9"/><use xlink:href="#JLdC2gkJjQlgD1BvdqE9_pad-1" x="9733.5" y="-3597.9"/><use xlink:href="#JLdC2gkJjQlgD1BvdqE9_pad-3" x="5074" y="-1644.1"/><use xlink:href="#JLdC2gkJjQlgD1BvdqE9_pad-3" x="5074" y="-1744.1"/><use xlink:href="#JLdC2gkJjQlgD1BvdqE9_pad-3" x="5074" y="-1844.1"/><use xlink:href="#JLdC2gkJjQlgD1BvdqE9_pad-3" x="5074" y="-1944.1"/><use xlink:href="#JLdC2gkJjQlgD1BvdqE9_pad-3" x="5074" y="-2044.1"/><use xlink:href="#JLdC2gkJjQlgD1BvdqE9_pad-3" x="5074" y="-2144.1"/><use xlink:href="#JLdC2gkJjQlgD1BvdqE9_pad-3" x="5074" y="-2244.1"/><use xlink:href="#JLdC2gkJjQlgD1BvdqE9_pad-3" x="5074" y="-2344.1"/><use xlink:href="#JLdC2gkJjQlgD1BvdqE9_pad-3" x="5074" y="-2444.1"/><use xlink:href="#JLdC2gkJjQlgD1BvdqE9_pad-3" x="5074" y="-2544.1"/><use xlink:href="#JLdC2gkJjQlgD1BvdqE9_pad-3" x="5074" y="-2644.1"/><use xlink:href="#JLdC2gkJjQlgD1BvdqE9_pad-3" x="5074" y="-2744.1"/><use xlink:href="#JLdC2gkJjQlgD1BvdqE9_pad-3" x="5673.2" y="-1644.1"/><use xlink:href="#JLdC2gkJjQlgD1BvdqE9_pad-3" x="5673.2" y="-1744.1"/><use xlink:href="#JLdC2gkJjQlgD1BvdqE9_pad-3" x="5673.2" y="-1844.1"/><use xlink:href="#JLdC2gkJjQlgD1BvdqE9_pad-3" x="5673.2" y="-1944.1"/><use xlink:href="#JLdC2gkJjQlgD1BvdqE9_pad-3" x="5673.2" y="-2044.1"/><use xlink:href="#JLdC2gkJjQlgD1BvdqE9_pad-3" x="5673.2" y="-2144.1"/><use xlink:href="#JLdC2gkJjQlgD1BvdqE9_pad-3" x="5673.2" y="-2244.1"/><use xlink:href="#JLdC2gkJjQlgD1BvdqE9_pad-3" x="5673.2" y="-2344.1"/><use xlink:href="#JLdC2gkJjQlgD1BvdqE9_pad-3" x="5673.2" y="-2444.1"/><use xlink:href="#JLdC2gkJjQlgD1BvdqE9_pad-3" x="5673.2" y="-2544.1"/><use xlink:href="#JLdC2gkJjQlgD1BvdqE9_pad-3" x="5673.2" y="-2644.1"/><use xlink:href="#JLdC2gkJjQlgD1BvdqE9_pad-3" x="5673.2" y="-2744.1"/><use xlink:href="#JLdC2gkJjQlgD1BvdqE9_pad-4" x="5245.6" y="-3432.9"/><use xlink:href="#JLdC2gkJjQlgD1BvdqE9_pad-4" x="5501.5" y="-3432.9"/><use xlink:href="#JLdC2gkJjQlgD1BvdqE9_pad-5" x="5123.5" y="-3214.1"/><use xlink:href="#JLdC2gkJjQlgD1BvdqE9_pad-5" x="5623.5" y="-3214.1"/><use xlink:href="#JLdC2gkJjQlgD1BvdqE9_pad-6" x="10467.3" y="-4276.6"/><use xlink:href="#JLdC2gkJjQlgD1BvdqE9_pad-6" x="3498.5" y="-2182.9"/><use xlink:href="#JLdC2gkJjQlgD1BvdqE9_pad-6" x="10467.3" y="-1589.1"/><use xlink:href="#JLdC2gkJjQlgD1BvdqE9_pad-6" x="279.8" y="-1589.1"/><use xlink:href="#JLdC2gkJjQlgD1BvdqE9_pad-6" x="7248.5" y="-2187.9"/><use xlink:href="#JLdC2gkJjQlgD1BvdqE9_pad-6" x="279.8" y="-4276.6"/><use xlink:href="#JLdC2gkJjQlgD1BvdqE9_pad-6" x="5373.5" y="-4276.6"/><use xlink:href="#JLdC2gkJjQlgD1BvdqE9_pad-7" x="7407" y="-2557.9"/><use xlink:href="#JLdC2gkJjQlgD1BvdqE9_pad-7" x="7840.1" y="-2557.9"/><use xlink:href="#JLdC2gkJjQlgD1BvdqE9_pad-7" x="3657" y="-2557.9"/><use xlink:href="#JLdC2gkJjQlgD1BvdqE9_pad-7" x="4090.1" y="-2557.9"/><use xlink:href="#JLdC2gkJjQlgD1BvdqE9_pad-7" x="2157" y="-2557.9"/><use xlink:href="#JLdC2gkJjQlgD1BvdqE9_pad-7" x="2590.1" y="-2557.9"/><use xlink:href="#JLdC2gkJjQlgD1BvdqE9_pad-7" x="5907" y="-2557.9"/><use xlink:href="#JLdC2gkJjQlgD1BvdqE9_pad-7" x="6340.1" y="-2557.9"/><use xlink:href="#JLdC2gkJjQlgD1BvdqE9_pad-7" x="4407" y="-2557.9"/><use xlink:href="#JLdC2gkJjQlgD1BvdqE9_pad-7" x="4840.1" y="-2557.9"/><use xlink:href="#JLdC2gkJjQlgD1BvdqE9_pad-7" x="657" y="-4057.9"/><use xlink:href="#JLdC2gkJjQlgD1BvdqE9_pad-7" x="1407" y="-2557.9"/><use xlink:href="#JLdC2gkJjQlgD1BvdqE9_pad-7" x="1840.1" y="-2557.9"/><use xlink:href="#JLdC2gkJjQlgD1BvdqE9_pad-7" x="6657" y="-2557.9"/><use xlink:href="#JLdC2gkJjQlgD1BvdqE9_pad-7" x="7090.1" y="-2557.9"/><use xlink:href="#JLdC2gkJjQlgD1BvdqE9_pad-7" x="8907" y="-1807.9"/><use xlink:href="#JLdC2gkJjQlgD1BvdqE9_pad-7" x="9844.5" y="-1807.9"/><use xlink:href="#JLdC2gkJjQlgD1BvdqE9_pad-7" x="10277.6" y="-1807.9"/><use xlink:href="#JLdC2gkJjQlgD1BvdqE9_pad-7" x="9340.1" y="-1807.9"/><use xlink:href="#JLdC2gkJjQlgD1BvdqE9_pad-7" x="5907" y="-1807.9"/><use xlink:href="#JLdC2gkJjQlgD1BvdqE9_pad-7" x="6340.1" y="-1807.9"/><use xlink:href="#JLdC2gkJjQlgD1BvdqE9_pad-7" x="1090.1" y="-4057.9"/><use xlink:href="#JLdC2gkJjQlgD1BvdqE9_pad-7" x="8907" y="-4057.9"/><use xlink:href="#JLdC2gkJjQlgD1BvdqE9_pad-7" x="9340.1" y="-4057.9"/><use xlink:href="#JLdC2gkJjQlgD1BvdqE9_pad-7" x="8157" y="-4057.9"/><use xlink:href="#JLdC2gkJjQlgD1BvdqE9_pad-7" x="8590.1" y="-4057.9"/><use xlink:href="#JLdC2gkJjQlgD1BvdqE9_pad-7" x="4594.5" y="-4057.9"/><use xlink:href="#JLdC2gkJjQlgD1BvdqE9_pad-7" x="9844.5" y="-3307.9"/><use xlink:href="#JLdC2gkJjQlgD1BvdqE9_pad-7" x="3340.1" y="-2557.9"/><use xlink:href="#JLdC2gkJjQlgD1BvdqE9_pad-7" x="469.5" y="-2557.9"/><use xlink:href="#JLdC2gkJjQlgD1BvdqE9_pad-7" x="902.6" y="-2557.9"/><use xlink:href="#JLdC2gkJjQlgD1BvdqE9_pad-7" x="10090.1" y="-4057.9"/><use xlink:href="#JLdC2gkJjQlgD1BvdqE9_pad-7" x="2907" y="-2557.9"/><use xlink:href="#JLdC2gkJjQlgD1BvdqE9_pad-7" x="10277.6" y="-3307.9"/><use xlink:href="#JLdC2gkJjQlgD1BvdqE9_pad-7" x="8907" y="-3307.9"/><use xlink:href="#JLdC2gkJjQlgD1BvdqE9_pad-7" x="4090.1" y="-4057.9"/><use xlink:href="#JLdC2gkJjQlgD1BvdqE9_pad-7" x="9657" y="-4057.9"/><use xlink:href="#JLdC2gkJjQlgD1BvdqE9_pad-7" x="9340.1" y="-3307.9"/><use xlink:href="#JLdC2gkJjQlgD1BvdqE9_pad-7" x="5027.6" y="-4057.9"/><use xlink:href="#JLdC2gkJjQlgD1BvdqE9_pad-7" x="3657" y="-4057.9"/><use xlink:href="#JLdC2gkJjQlgD1BvdqE9_pad-7" x="2907" y="-4057.9"/><use xlink:href="#JLdC2gkJjQlgD1BvdqE9_pad-7" x="3340.1" y="-4057.9"/><use xlink:href="#JLdC2gkJjQlgD1BvdqE9_pad-7" x="3657" y="-1807.9"/><use xlink:href="#JLdC2gkJjQlgD1BvdqE9_pad-7" x="4090.1" y="-1807.9"/><use xlink:href="#JLdC2gkJjQlgD1BvdqE9_pad-7" x="2907" y="-1807.9"/><use xlink:href="#JLdC2gkJjQlgD1BvdqE9_pad-7" x="3340.1" y="-1807.9"/><use xlink:href="#JLdC2gkJjQlgD1BvdqE9_pad-7" x="5907" y="-3307.9"/><use xlink:href="#JLdC2gkJjQlgD1BvdqE9_pad-7" x="6340.1" y="-3307.9"/><use xlink:href="#JLdC2gkJjQlgD1BvdqE9_pad-7" x="4407" y="-3307.9"/><use xlink:href="#JLdC2gkJjQlgD1BvdqE9_pad-7" x="4840.1" y="-3307.9"/><use xlink:href="#JLdC2gkJjQlgD1BvdqE9_pad-7" x="3657" y="-3307.9"/><use xlink:href="#JLdC2gkJjQlgD1BvdqE9_pad-7" x="4090.1" y="-3307.9"/><use xlink:href="#JLdC2gkJjQlgD1BvdqE9_pad-7" x="8157" y="-1807.9"/><use xlink:href="#JLdC2gkJjQlgD1BvdqE9_pad-7" x="8590.1" y="-1807.9"/><use xlink:href="#JLdC2gkJjQlgD1BvdqE9_pad-7" x="7407" y="-1807.9"/><use xlink:href="#JLdC2gkJjQlgD1BvdqE9_pad-7" x="7840.1" y="-1807.9"/><use xlink:href="#JLdC2gkJjQlgD1BvdqE9_pad-7" x="6657" y="-1807.9"/><use xlink:href="#JLdC2gkJjQlgD1BvdqE9_pad-7" x="7090.1" y="-1807.9"/><use xlink:href="#JLdC2gkJjQlgD1BvdqE9_pad-7" x="7407" y="-4057.9"/><use xlink:href="#JLdC2gkJjQlgD1BvdqE9_pad-7" x="7840.1" y="-4057.9"/><use xlink:href="#JLdC2gkJjQlgD1BvdqE9_pad-7" x="6657" y="-4057.9"/><use xlink:href="#JLdC2gkJjQlgD1BvdqE9_pad-7" x="7090.1" y="-4057.9"/><use xlink:href="#JLdC2gkJjQlgD1BvdqE9_pad-7" x="5719.5" y="-4057.9"/><use xlink:href="#JLdC2gkJjQlgD1BvdqE9_pad-7" x="6152.6" y="-4057.9"/><use xlink:href="#JLdC2gkJjQlgD1BvdqE9_pad-7" x="2157" y="-4057.9"/><use xlink:href="#JLdC2gkJjQlgD1BvdqE9_pad-7" x="8157" y="-2557.9"/><use xlink:href="#JLdC2gkJjQlgD1BvdqE9_pad-7" x="469.5" y="-1807.9"/><use xlink:href="#JLdC2gkJjQlgD1BvdqE9_pad-7" x="902.6" y="-1807.9"/><use xlink:href="#JLdC2gkJjQlgD1BvdqE9_pad-7" x="4407" y="-1807.9"/><use xlink:href="#JLdC2gkJjQlgD1BvdqE9_pad-7" x="4840.1" y="-1807.9"/><use xlink:href="#JLdC2gkJjQlgD1BvdqE9_pad-7" x="2157" y="-1807.9"/><use xlink:href="#JLdC2gkJjQlgD1BvdqE9_pad-7" x="8590.1" y="-3307.9"/><use xlink:href="#JLdC2gkJjQlgD1BvdqE9_pad-7" x="469.5" y="-3307.9"/><use xlink:href="#JLdC2gkJjQlgD1BvdqE9_pad-7" x="1407" y="-4057.9"/><use xlink:href="#JLdC2gkJjQlgD1BvdqE9_pad-7" x="8157" y="-3307.9"/><use xlink:href="#JLdC2gkJjQlgD1BvdqE9_pad-7" x="1407" y="-3307.9"/><use xlink:href="#JLdC2gkJjQlgD1BvdqE9_pad-7" x="8590.1" y="-2557.9"/><use xlink:href="#JLdC2gkJjQlgD1BvdqE9_pad-7" x="2907" y="-3307.9"/><use xlink:href="#JLdC2gkJjQlgD1BvdqE9_pad-7" x="10277.6" y="-2557.9"/><use xlink:href="#JLdC2gkJjQlgD1BvdqE9_pad-7" x="1840.1" y="-3307.9"/><use xlink:href="#JLdC2gkJjQlgD1BvdqE9_pad-7" x="2590.1" y="-1807.9"/><use xlink:href="#JLdC2gkJjQlgD1BvdqE9_pad-7" x="6657" y="-3307.9"/><use xlink:href="#JLdC2gkJjQlgD1BvdqE9_pad-7" x="902.6" y="-3307.9"/><use xlink:href="#JLdC2gkJjQlgD1BvdqE9_pad-7" x="2590.1" y="-4057.9"/><use xlink:href="#JLdC2gkJjQlgD1BvdqE9_pad-7" x="7090.1" y="-3307.9"/><use xlink:href="#JLdC2gkJjQlgD1BvdqE9_pad-7" x="1840.1" y="-4057.9"/><use xlink:href="#JLdC2gkJjQlgD1BvdqE9_pad-7" x="7407" y="-3307.9"/><use xlink:href="#JLdC2gkJjQlgD1BvdqE9_pad-7" x="7840.1" y="-3307.9"/><use xlink:href="#JLdC2gkJjQlgD1BvdqE9_pad-7" x="2157" y="-3307.9"/><use xlink:href="#JLdC2gkJjQlgD1BvdqE9_pad-7" x="8907" y="-2557.9"/><use xlink:href="#JLdC2gkJjQlgD1BvdqE9_pad-7" x="3340.1" y="-3307.9"/><use xlink:href="#JLdC2gkJjQlgD1BvdqE9_pad-7" x="9844.5" y="-2557.9"/><use xlink:href="#JLdC2gkJjQlgD1BvdqE9_pad-7" x="1407" y="-1807.9"/><use xlink:href="#JLdC2gkJjQlgD1BvdqE9_pad-7" x="1840.1" y="-1807.9"/><use xlink:href="#JLdC2gkJjQlgD1BvdqE9_pad-7" x="2590.1" y="-3307.9"/><use xlink:href="#JLdC2gkJjQlgD1BvdqE9_pad-7" x="9340.1" y="-2557.9"/><use xlink:href="#JLdC2gkJjQlgD1BvdqE9_pad-8" x="7426.7" y="-2703.5"/><use xlink:href="#JLdC2gkJjQlgD1BvdqE9_pad-8" x="7623.5" y="-2790.2"/><use xlink:href="#JLdC2gkJjQlgD1BvdqE9_pad-8" x="5926.7" y="-2703.5"/><use xlink:href="#JLdC2gkJjQlgD1BvdqE9_pad-8" x="6123.5" y="-2790.2"/><use xlink:href="#JLdC2gkJjQlgD1BvdqE9_pad-8" x="4426.7" y="-2703.5"/><use xlink:href="#JLdC2gkJjQlgD1BvdqE9_pad-8" x="3676.7" y="-2703.5"/><use xlink:href="#JLdC2gkJjQlgD1BvdqE9_pad-8" x="3873.5" y="-2790.2"/><use xlink:href="#JLdC2gkJjQlgD1BvdqE9_pad-8" x="2176.7" y="-2703.5"/><use xlink:href="#JLdC2gkJjQlgD1BvdqE9_pad-8" x="2373.5" y="-2790.2"/><use xlink:href="#JLdC2gkJjQlgD1BvdqE9_pad-8" x="4623.5" y="-2790.2"/><use xlink:href="#JLdC2gkJjQlgD1BvdqE9_pad-8" x="6676.7" y="-2703.5"/><use xlink:href="#JLdC2gkJjQlgD1BvdqE9_pad-8" x="6873.5" y="-2790.2"/><use xlink:href="#JLdC2gkJjQlgD1BvdqE9_pad-8" x="8926.7" y="-1953.5"/><use xlink:href="#JLdC2gkJjQlgD1BvdqE9_pad-8" x="9123.5" y="-2040.2"/><use xlink:href="#JLdC2gkJjQlgD1BvdqE9_pad-8" x="676.7" y="-4203.5"/><use xlink:href="#JLdC2gkJjQlgD1BvdqE9_pad-8" x="873.5" y="-4290.2"/><use xlink:href="#JLdC2gkJjQlgD1BvdqE9_pad-8" x="1426.7" y="-2703.5"/><use xlink:href="#JLdC2gkJjQlgD1BvdqE9_pad-8" x="1623.5" y="-2790.2"/><use xlink:href="#JLdC2gkJjQlgD1BvdqE9_pad-8" x="2926.7" y="-2703.5"/><use xlink:href="#JLdC2gkJjQlgD1BvdqE9_pad-8" x="3123.5" y="-2790.2"/><use xlink:href="#JLdC2gkJjQlgD1BvdqE9_pad-8" x="489.2" y="-2703.5"/><use xlink:href="#JLdC2gkJjQlgD1BvdqE9_pad-8" x="686" y="-2790.2"/><use xlink:href="#JLdC2gkJjQlgD1BvdqE9_pad-8" x="9676.7" y="-4203.5"/><use xlink:href="#JLdC2gkJjQlgD1BvdqE9_pad-8" x="9873.5" y="-4290.2"/><use xlink:href="#JLdC2gkJjQlgD1BvdqE9_pad-8" x="9864.2" y="-3453.5"/><use xlink:href="#JLdC2gkJjQlgD1BvdqE9_pad-8" x="10061" y="-3540.2"/><use xlink:href="#JLdC2gkJjQlgD1BvdqE9_pad-8" x="9864.2" y="-1953.5"/><use xlink:href="#JLdC2gkJjQlgD1BvdqE9_pad-8" x="10061" y="-2040.2"/><use xlink:href="#JLdC2gkJjQlgD1BvdqE9_pad-8" x="489.2" y="-1953.5"/><use xlink:href="#JLdC2gkJjQlgD1BvdqE9_pad-8" x="686" y="-2040.2"/><use xlink:href="#JLdC2gkJjQlgD1BvdqE9_pad-8" x="8176.7" y="-1953.5"/><use xlink:href="#JLdC2gkJjQlgD1BvdqE9_pad-8" x="8373.5" y="-2040.2"/><use xlink:href="#JLdC2gkJjQlgD1BvdqE9_pad-8" x="4426.7" y="-1953.5"/><use xlink:href="#JLdC2gkJjQlgD1BvdqE9_pad-8" x="4623.5" y="-2040.2"/><use xlink:href="#JLdC2gkJjQlgD1BvdqE9_pad-8" x="8176.7" y="-3453.5"/><use xlink:href="#JLdC2gkJjQlgD1BvdqE9_pad-8" x="8373.5" y="-3540.2"/><use xlink:href="#JLdC2gkJjQlgD1BvdqE9_pad-8" x="7426.7" y="-3453.5"/><use xlink:href="#JLdC2gkJjQlgD1BvdqE9_pad-8" x="7623.5" y="-3540.2"/><use xlink:href="#JLdC2gkJjQlgD1BvdqE9_pad-8" x="6676.7" y="-3453.5"/><use xlink:href="#JLdC2gkJjQlgD1BvdqE9_pad-8" x="6873.5" y="-3540.2"/><use xlink:href="#JLdC2gkJjQlgD1BvdqE9_pad-8" x="5926.7" y="-1953.5"/><use xlink:href="#JLdC2gkJjQlgD1BvdqE9_pad-8" x="6123.5" y="-2040.2"/><use xlink:href="#JLdC2gkJjQlgD1BvdqE9_pad-8" x="7426.7" y="-1953.5"/><use xlink:href="#JLdC2gkJjQlgD1BvdqE9_pad-8" x="7623.5" y="-2040.2"/><use xlink:href="#JLdC2gkJjQlgD1BvdqE9_pad-8" x="6676.7" y="-1953.5"/><use xlink:href="#JLdC2gkJjQlgD1BvdqE9_pad-8" x="6873.5" y="-2040.2"/><use xlink:href="#JLdC2gkJjQlgD1BvdqE9_pad-8" x="1426.7" y="-1953.5"/><use xlink:href="#JLdC2gkJjQlgD1BvdqE9_pad-8" x="1623.5" y="-2040.2"/><use xlink:href="#JLdC2gkJjQlgD1BvdqE9_pad-8" x="9123.5" y="-3540.2"/><use xlink:href="#JLdC2gkJjQlgD1BvdqE9_pad-8" x="8926.7" y="-4203.5"/><use xlink:href="#JLdC2gkJjQlgD1BvdqE9_pad-8" x="8176.7" y="-4203.5"/><use xlink:href="#JLdC2gkJjQlgD1BvdqE9_pad-8" x="8373.5" y="-4290.2"/><use xlink:href="#JLdC2gkJjQlgD1BvdqE9_pad-8" x="4614.2" y="-4203.5"/><use xlink:href="#JLdC2gkJjQlgD1BvdqE9_pad-8" x="4811" y="-4290.2"/><use xlink:href="#JLdC2gkJjQlgD1BvdqE9_pad-8" x="3676.7" y="-4203.5"/><use xlink:href="#JLdC2gkJjQlgD1BvdqE9_pad-8" x="3873.5" y="-4290.2"/><use xlink:href="#JLdC2gkJjQlgD1BvdqE9_pad-8" x="2926.7" y="-4203.5"/><use xlink:href="#JLdC2gkJjQlgD1BvdqE9_pad-8" x="3123.5" y="-4290.2"/><use xlink:href="#JLdC2gkJjQlgD1BvdqE9_pad-8" x="2926.7" y="-1953.5"/><use xlink:href="#JLdC2gkJjQlgD1BvdqE9_pad-8" x="3123.5" y="-2040.2"/><use xlink:href="#JLdC2gkJjQlgD1BvdqE9_pad-8" x="8926.7" y="-3453.5"/><use xlink:href="#JLdC2gkJjQlgD1BvdqE9_pad-8" x="9123.5" y="-4290.2"/><use xlink:href="#JLdC2gkJjQlgD1BvdqE9_pad-8" x="3676.7" y="-1953.5"/><use xlink:href="#JLdC2gkJjQlgD1BvdqE9_pad-8" x="3873.5" y="-2040.2"/><use xlink:href="#JLdC2gkJjQlgD1BvdqE9_pad-8" x="5926.7" y="-3453.5"/><use xlink:href="#JLdC2gkJjQlgD1BvdqE9_pad-8" x="6123.5" y="-3540.2"/><use xlink:href="#JLdC2gkJjQlgD1BvdqE9_pad-8" x="4426.7" y="-3453.5"/><use xlink:href="#JLdC2gkJjQlgD1BvdqE9_pad-8" x="4623.5" y="-3540.2"/><use xlink:href="#JLdC2gkJjQlgD1BvdqE9_pad-8" x="3676.7" y="-3453.5"/><use xlink:href="#JLdC2gkJjQlgD1BvdqE9_pad-8" x="8373.5" y="-2790.2"/><use xlink:href="#JLdC2gkJjQlgD1BvdqE9_pad-8" x="2176.7" y="-3453.5"/><use xlink:href="#JLdC2gkJjQlgD1BvdqE9_pad-8" x="2373.5" y="-3540.2"/><use xlink:href="#JLdC2gkJjQlgD1BvdqE9_pad-8" x="1426.7" y="-3453.5"/><use xlink:href="#JLdC2gkJjQlgD1BvdqE9_pad-8" x="1623.5" y="-3540.2"/><use xlink:href="#JLdC2gkJjQlgD1BvdqE9_pad-8" x="489.2" y="-3453.5"/><use xlink:href="#JLdC2gkJjQlgD1BvdqE9_pad-8" x="7426.7" y="-4203.5"/><use xlink:href="#JLdC2gkJjQlgD1BvdqE9_pad-8" x="9123.5" y="-2790.2"/><use xlink:href="#JLdC2gkJjQlgD1BvdqE9_pad-8" x="3873.5" y="-3540.2"/><use xlink:href="#JLdC2gkJjQlgD1BvdqE9_pad-8" x="2176.7" y="-1953.5"/><use xlink:href="#JLdC2gkJjQlgD1BvdqE9_pad-8" x="2373.5" y="-2040.2"/><use xlink:href="#JLdC2gkJjQlgD1BvdqE9_pad-8" x="9864.2" y="-2703.5"/><use xlink:href="#JLdC2gkJjQlgD1BvdqE9_pad-8" x="10061" y="-2790.2"/><use xlink:href="#JLdC2gkJjQlgD1BvdqE9_pad-8" x="2176.7" y="-4203.5"/><use xlink:href="#JLdC2gkJjQlgD1BvdqE9_pad-8" x="2373.5" y="-4290.2"/><use xlink:href="#JLdC2gkJjQlgD1BvdqE9_pad-8" x="686" y="-3540.2"/><use xlink:href="#JLdC2gkJjQlgD1BvdqE9_pad-8" x="7623.5" y="-4290.2"/><use xlink:href="#JLdC2gkJjQlgD1BvdqE9_pad-8" x="2926.7" y="-3453.5"/><use xlink:href="#JLdC2gkJjQlgD1BvdqE9_pad-8" x="1623.5" y="-4290.2"/><use xlink:href="#JLdC2gkJjQlgD1BvdqE9_pad-8" x="3123.5" y="-3540.2"/><use xlink:href="#JLdC2gkJjQlgD1BvdqE9_pad-8" x="6676.7" y="-4203.5"/><use xlink:href="#JLdC2gkJjQlgD1BvdqE9_pad-8" x="6873.5" y="-4290.2"/><use xlink:href="#JLdC2gkJjQlgD1BvdqE9_pad-8" x="8926.7" y="-2703.5"/><use xlink:href="#JLdC2gkJjQlgD1BvdqE9_pad-8" x="5739.2" y="-4203.5"/><use xlink:href="#JLdC2gkJjQlgD1BvdqE9_pad-8" x="5936" y="-4290.2"/><use xlink:href="#JLdC2gkJjQlgD1BvdqE9_pad-8" x="1426.7" y="-4203.5"/><use xlink:href="#JLdC2gkJjQlgD1BvdqE9_pad-8" x="8176.7" y="-2703.5"/><use xlink:href="#JLdC2gkJjQlgD1BvdqE9_pad-9" x="7623.5" y="-2557.9"/><use xlink:href="#JLdC2gkJjQlgD1BvdqE9_pad-9" x="4623.5" y="-2557.9"/><use xlink:href="#JLdC2gkJjQlgD1BvdqE9_pad-9" x="686" y="-2557.9"/><use xlink:href="#JLdC2gkJjQlgD1BvdqE9_pad-9" x="2373.5" y="-2557.9"/><use xlink:href="#JLdC2gkJjQlgD1BvdqE9_pad-9" x="1623.5" y="-2557.9"/><use xlink:href="#JLdC2gkJjQlgD1BvdqE9_pad-9" x="6873.5" y="-2557.9"/><use xlink:href="#JLdC2gkJjQlgD1BvdqE9_pad-9" x="6123.5" y="-2557.9"/><use xlink:href="#JLdC2gkJjQlgD1BvdqE9_pad-9" x="3873.5" y="-2557.9"/><use xlink:href="#JLdC2gkJjQlgD1BvdqE9_pad-9" x="10061" y="-1807.9"/><use xlink:href="#JLdC2gkJjQlgD1BvdqE9_pad-9" x="8373.5" y="-1807.9"/><use xlink:href="#JLdC2gkJjQlgD1BvdqE9_pad-9" x="7623.5" y="-1807.9"/><use xlink:href="#JLdC2gkJjQlgD1BvdqE9_pad-9" x="6873.5" y="-1807.9"/><use xlink:href="#JLdC2gkJjQlgD1BvdqE9_pad-9" x="9123.5" y="-1807.9"/><use xlink:href="#JLdC2gkJjQlgD1BvdqE9_pad-9" x="3123.5" y="-4057.9"/><use xlink:href="#JLdC2gkJjQlgD1BvdqE9_pad-9" x="3123.5" y="-2557.9"/><use xlink:href="#JLdC2gkJjQlgD1BvdqE9_pad-9" x="6123.5" y="-1807.9"/><use xlink:href="#JLdC2gkJjQlgD1BvdqE9_pad-9" x="873.5" y="-4057.9"/><use xlink:href="#JLdC2gkJjQlgD1BvdqE9_pad-9" x="9123.5" y="-4057.9"/><use xlink:href="#JLdC2gkJjQlgD1BvdqE9_pad-9" x="8373.5" y="-4057.9"/><use xlink:href="#JLdC2gkJjQlgD1BvdqE9_pad-9" x="4811" y="-4057.9"/><use xlink:href="#JLdC2gkJjQlgD1BvdqE9_pad-9" x="3873.5" y="-4057.9"/><use xlink:href="#JLdC2gkJjQlgD1BvdqE9_pad-9" x="3873.5" y="-1807.9"/><use xlink:href="#JLdC2gkJjQlgD1BvdqE9_pad-9" x="3123.5" y="-1807.9"/><use xlink:href="#JLdC2gkJjQlgD1BvdqE9_pad-9" x="7623.5" y="-4057.9"/><use xlink:href="#JLdC2gkJjQlgD1BvdqE9_pad-9" x="3123.5" y="-3307.9"/><use xlink:href="#JLdC2gkJjQlgD1BvdqE9_pad-9" x="10061" y="-3307.9"/><use xlink:href="#JLdC2gkJjQlgD1BvdqE9_pad-9" x="3873.5" y="-3307.9"/><use xlink:href="#JLdC2gkJjQlgD1BvdqE9_pad-9" x="2373.5" y="-4057.9"/><use xlink:href="#JLdC2gkJjQlgD1BvdqE9_pad-9" x="1623.5" y="-4057.9"/><use xlink:href="#JLdC2gkJjQlgD1BvdqE9_pad-9" x="9873.5" y="-4057.9"/><use xlink:href="#JLdC2gkJjQlgD1BvdqE9_pad-9" x="4623.5" y="-3307.9"/><use xlink:href="#JLdC2gkJjQlgD1BvdqE9_pad-9" x="5936" y="-4057.9"/><use xlink:href="#JLdC2gkJjQlgD1BvdqE9_pad-9" x="6123.5" y="-3307.9"/><use xlink:href="#JLdC2gkJjQlgD1BvdqE9_pad-9" x="1623.5" y="-3307.9"/><use xlink:href="#JLdC2gkJjQlgD1BvdqE9_pad-9" x="6873.5" y="-4057.9"/><use xlink:href="#JLdC2gkJjQlgD1BvdqE9_pad-9" x="686" y="-1807.9"/><use xlink:href="#JLdC2gkJjQlgD1BvdqE9_pad-9" x="4623.5" y="-1807.9"/><use xlink:href="#JLdC2gkJjQlgD1BvdqE9_pad-9" x="7623.5" y="-3307.9"/><use xlink:href="#JLdC2gkJjQlgD1BvdqE9_pad-9" x="6873.5" y="-3307.9"/><use xlink:href="#JLdC2gkJjQlgD1BvdqE9_pad-9" x="1623.5" y="-1807.9"/><use xlink:href="#JLdC2gkJjQlgD1BvdqE9_pad-9" x="686" y="-3307.9"/><use xlink:href="#JLdC2gkJjQlgD1BvdqE9_pad-9" x="2373.5" y="-1807.9"/><use xlink:href="#JLdC2gkJjQlgD1BvdqE9_pad-9" x="8373.5" y="-3307.9"/><use xlink:href="#JLdC2gkJjQlgD1BvdqE9_pad-9" x="10061" y="-2557.9"/><use xlink:href="#JLdC2gkJjQlgD1BvdqE9_pad-9" x="9123.5" y="-2557.9"/><use xlink:href="#JLdC2gkJjQlgD1BvdqE9_pad-9" x="8373.5" y="-2557.9"/><use xlink:href="#JLdC2gkJjQlgD1BvdqE9_pad-9" x="9123.5" y="-3307.9"/><use xlink:href="#JLdC2gkJjQlgD1BvdqE9_pad-9" x="2373.5" y="-3307.9"/><path d="M 7848.9 -2361 7835.1 -2361 M 7098.9 -2361 7085.1 -2361 M 6348.9 -2361 6335.1 -2361 M 4848.9 -2361 4835.1 -2361 M 4098.9 -2361 4085.1 -2361 M 2598.9 -2361 2585.1 -2361 M 1848.9 -2361 1835.1 -2361 M 911.4 -2361 897.6 -2361 M 9348.9 -1611 9335.1 -1611 M 10098.9 -3861 10085.1 -3861 M 1098.9 -3861 1085.1 -3861 M 3348.9 -2361 3335.1 -2361 M 10286.4 -3111 10272.6 -3111 M 9348.9 -3111 9335.1 -3111 M 10286.4 -1611 10272.6 -1611 M 6348.9 -1611 6335.1 -1611 M 9348.9 -3861 9335.1 -3861 M 8598.9 -3861 8585.1 -3861 M 5036.4 -3861 5022.6 -3861 M 4098.9 -3861 4085.1 -3861 M 3348.9 -3861 3335.1 -3861 M 4098.9 -1611 4085.1 -1611 M 7098.9 -1611 7085.1 -1611 M 911.4 -1611 897.6 -1611 M 8598.9 -1611 8585.1 -1611 M 7848.9 -1611 7835.1 -1611 M 4848.9 -1611 4835.1 -1611 M 2598.9 -1611 2585.1 -1611 M 8598.9 -3111 8585.1 -3111 M 7848.9 -3111 7835.1 -3111 M 7098.9 -3111 7085.1 -3111 M 3348.9 -3111 3335.1 -3111 M 7848.9 -3861 7835.1 -3861 M 1848.9 -1611 1835.1 -1611 M 3348.9 -1611 3335.1 -1611 M 7098.9 -3861 7085.1 -3861 M 6161.4 -3861 6147.6 -3861 M 10286.4 -2361 10272.6 -2361 M 2598.9 -3861 2585.1 -3861 M 1848.9 -3861 1835.1 -3861 M 6348.9 -3111 6335.1 -3111 M 4848.9 -3111 4835.1 -3111 M 4098.9 -3111 4085.1 -3111 M 2598.9 -3111 2585.1 -3111 M 1848.9 -3111 1835.1 -3111 M 911.4 -3111 897.6 -3111 M 9348.9 -2361 9335.1 -2361 M 8598.9 -2361 8585.1 -2361" fill="none" stroke-width="25.6"/></g><clipPath id="Z3Avcl27c-ouz1Ey9TBM_top_outline"><path d="M 4725 -112595 268250 -112595 A 1587.5 1587.5 0 0 1 269837.5 -111007.5 L 269837.5 -37982.5 A 1587.5 1587.5 0 0 1 268250 -36395 L 4725 -36395 A 1587.5 1587.5 0 0 1 3137.5 -37982.5 L 3137.5 -111007.5 A 1587.5 1587.5 0 0 1 4725 -112595" fill="none" stroke-width="200"/></clipPath><mask id="Z3Avcl27c-ouz1Ey9TBM_top_mech-mask"><g fill="#000" stroke="#000"><rect x="3137.5" y="-112595" width="266700" height="76200" fill="#fff"/><use xlink:href="#Z3Avcl27c-ouz1Ey9TBM_top_drill1"/></g></mask><mask id="Z3Avcl27c-ouz1Ey9TBM_top_cf-mask"><g fill="#fff" stroke="#fff"><use xlink:href="#Z3Avcl27c-ouz1Ey9TBM_top_soldermask"/></g></mask><mask id="Z3Avcl27c-ouz1Ey9TBM_top_sm-mask"><g fill="#000" stroke="#000"><rect x="3137.5" y="-112595" width="266700" height="76200" fill="#fff"/><use xlink:href="#Z3Avcl27c-ouz1Ey9TBM_top_soldermask"/></g></mask></defs><g transform="translate(0,-148990) scale(1,-1)"><g mask="url(#Z3Avcl27c-ouz1Ey9TBM_top_mech-mask)" clip-path="url(#Z3Avcl27c-ouz1Ey9TBM_top_outline)"><rect x="3137.5" y="-112595" width="266700" height="76200" fill="currentColor" class="Z3Avcl27c-ouz1Ey9TBM_fr4"/><use xlink:href="#Z3Avcl27c-ouz1Ey9TBM_top_copper" fill="currentColor" stroke="currentColor" class="Z3Avcl27c-ouz1Ey9TBM_cu"/><use xlink:href="#Z3Avcl27c-ouz1Ey9TBM_top_copper" fill="currentColor" stroke="currentColor" class="Z3Avcl27c-ouz1Ey9TBM_cf" mask="url(#Z3Avcl27c-ouz1Ey9TBM_top_cf-mask)"/><g mask="url(#Z3Avcl27c-ouz1Ey9TBM_top_sm-mask)"><rect x="3137.5" y="-112595" width="266700" height="76200" fill="currentColor" class="Z3Avcl27c-ouz1Ey9TBM_sm"/><use xlink:href="#Z3Avcl27c-ouz1Ey9TBM_top_silkscreen" fill="currentColor" stroke="currentColor" class="Z3Avcl27c-ouz1Ey9TBM_ss"/></g></g></g></svg>